<?xml version="1.0" encoding="UTF-8" standalone="no"?><svg xmlns="http://www.w3.org/2000/svg" xmlns:xlink="http://www.w3.org/1999/xlink" contentStyleType="text/css" height="257px" preserveAspectRatio="none" style="width:507px;height:257px;background:#FFFFFF;" version="1.1" viewBox="0 0 507 257" width="507px" zoomAndPan="magnify">
    <defs />
    <g>
        <!--MD5=[5f7a1d5056c7d80958fde22b7188240f]
class Bot-->
        <g id="elem_Bot">
            <rect codeLine="1" fill="#F1F1F1" height="83.2188" id="Bot" rx="2.5" ry="2.5" style="stroke:#181818;stroke-width:0.5;" width="211" x="7" y="7" />
            <ellipse cx="97.75" cy="23" fill="#ADD1B2" rx="11" ry="11" style="stroke:#181818;stroke-width:1.0;" />
            <path d="M100.5156,18.875 Q100.6719,18.6563 100.8594,18.5469 Q101.0469,18.4375 101.2656,18.4375 Q101.6406,18.4375 101.875,18.7031 Q102.1094,18.9531 102.1094,19.5625 L102.1094,21.0156 Q102.1094,21.625 101.875,21.8906 Q101.6406,22.1563 101.2656,22.1563 Q100.9219,22.1563 100.7188,21.9531 Q100.5156,21.7656 100.4063,21.25 Q100.3594,20.8906 100.1719,20.7031 Q99.8438,20.3281 99.2344,20.1094 Q98.625,19.8906 98,19.8906 Q97.2344,19.8906 96.5938,20.2188 Q95.9688,20.5469 95.4688,21.2969 Q94.9844,22.0469 94.9844,23.0781 L94.9844,24.1719 Q94.9844,25.4063 95.875,26.2344 Q96.7656,27.0469 98.3594,27.0469 Q99.2969,27.0469 99.9531,26.7969 Q100.3438,26.6406 100.7656,26.2031 Q101.0313,25.9375 101.1719,25.8594 Q101.3281,25.7813 101.5313,25.7813 Q101.8594,25.7813 102.1094,26.0469 Q102.375,26.2969 102.375,26.6406 Q102.375,26.9844 102.0313,27.3906 Q101.5313,27.9688 100.7344,28.2969 Q99.6563,28.75 98.3594,28.75 Q96.8438,28.75 95.6406,28.125 Q94.6563,27.625 93.9688,26.5625 Q93.2813,25.4844 93.2813,24.2031 L93.2813,23.0469 Q93.2813,21.7188 93.8906,20.5781 Q94.5156,19.4219 95.6094,18.8125 Q96.7031,18.1875 97.9375,18.1875 Q98.6719,18.1875 99.3125,18.3594 Q99.9688,18.5156 100.5156,18.875 Z " fill="#000000" /><text fill="#000000" font-family="sans-serif" font-size="14" lengthAdjust="spacing" textLength="21" x="118.25" y="28.7285">Bot</text>
            <line style="stroke:#181818;stroke-width:0.5;" x1="8" x2="217" y1="39" y2="39" /><text fill="#000000" font-family="sans-serif" font-size="14" lengthAdjust="spacing" textLength="116" x="13" y="57.5332">userToken: Token</text><text fill="#000000" font-family="sans-serif" font-size="14" lengthAdjust="spacing" textLength="199" x="13" y="75.1426">messageCards: MessageCard[]</text>
            <line style="stroke:#181818;stroke-width:0.5;" x1="8" x2="217" y1="82.2188" y2="82.2188" />
        </g>
        <!--MD5=[86cb79e53930c0153cd693d492fd6a03]
class Tab-->
        <g id="elem_Tab">
            <rect codeLine="6" fill="#F1F1F1" height="83.2188" id="Tab" rx="2.5" ry="2.5" style="stroke:#181818;stroke-width:0.5;" width="189" x="253" y="7" />
            <ellipse cx="330.75" cy="23" fill="#ADD1B2" rx="11" ry="11" style="stroke:#181818;stroke-width:1.0;" />
            <path d="M333.5156,18.875 Q333.6719,18.6563 333.8594,18.5469 Q334.0469,18.4375 334.2656,18.4375 Q334.6406,18.4375 334.875,18.7031 Q335.1094,18.9531 335.1094,19.5625 L335.1094,21.0156 Q335.1094,21.625 334.875,21.8906 Q334.6406,22.1563 334.2656,22.1563 Q333.9219,22.1563 333.7188,21.9531 Q333.5156,21.7656 333.4063,21.25 Q333.3594,20.8906 333.1719,20.7031 Q332.8438,20.3281 332.2344,20.1094 Q331.625,19.8906 331,19.8906 Q330.2344,19.8906 329.5938,20.2188 Q328.9688,20.5469 328.4688,21.2969 Q327.9844,22.0469 327.9844,23.0781 L327.9844,24.1719 Q327.9844,25.4063 328.875,26.2344 Q329.7656,27.0469 331.3594,27.0469 Q332.2969,27.0469 332.9531,26.7969 Q333.3438,26.6406 333.7656,26.2031 Q334.0313,25.9375 334.1719,25.8594 Q334.3281,25.7813 334.5313,25.7813 Q334.8594,25.7813 335.1094,26.0469 Q335.375,26.2969 335.375,26.6406 Q335.375,26.9844 335.0313,27.3906 Q334.5313,27.9688 333.7344,28.2969 Q332.6563,28.75 331.3594,28.75 Q329.8438,28.75 328.6406,28.125 Q327.6563,27.625 326.9688,26.5625 Q326.2813,25.4844 326.2813,24.2031 L326.2813,23.0469 Q326.2813,21.7188 326.8906,20.5781 Q327.5156,19.4219 328.6094,18.8125 Q329.7031,18.1875 330.9375,18.1875 Q331.6719,18.1875 332.3125,18.3594 Q332.9688,18.5156 333.5156,18.875 Z " fill="#000000" /><text fill="#000000" font-family="sans-serif" font-size="14" lengthAdjust="spacing" textLength="25" x="351.25" y="28.7285">Tab</text>
            <line style="stroke:#181818;stroke-width:0.5;" x1="254" x2="441" y1="39" y2="39" /><text fill="#000000" font-family="sans-serif" font-size="14" lengthAdjust="spacing" textLength="177" x="259" y="57.5332">authenticationToken: Token</text>
            <line style="stroke:#181818;stroke-width:0.5;" x1="254" x2="441" y1="64.6094" y2="64.6094" /><text fill="#000000" font-family="sans-serif" font-size="14" lengthAdjust="spacing" textLength="166" x="259" y="83.1426">void sendMessageToBot()</text>
        </g>
        <!--MD5=[775938f4c1cac839065c30bb879c68d5]
class Tab Page-->
        <g id="elem_Tab Page">
            <rect codeLine="11" fill="#F1F1F1" height="100.8281" id="Tab Page" rx="2.5" ry="2.5" style="stroke:#181818;stroke-width:0.5;" width="146" x="187.5" y="150" />
            <ellipse cx="225.9" cy="166" fill="#ADD1B2" rx="11" ry="11" style="stroke:#181818;stroke-width:1.0;" />
            <path d="M228.6656,161.875 Q228.8219,161.6563 229.0094,161.5469 Q229.1969,161.4375 229.4156,161.4375 Q229.7906,161.4375 230.025,161.7031 Q230.2594,161.9531 230.2594,162.5625 L230.2594,164.0156 Q230.2594,164.625 230.025,164.8906 Q229.7906,165.1563 229.4156,165.1563 Q229.0719,165.1563 228.8688,164.9531 Q228.6656,164.7656 228.5563,164.25 Q228.5094,163.8906 228.3219,163.7031 Q227.9938,163.3281 227.3844,163.1094 Q226.775,162.8906 226.15,162.8906 Q225.3844,162.8906 224.7438,163.2188 Q224.1188,163.5469 223.6188,164.2969 Q223.1344,165.0469 223.1344,166.0781 L223.1344,167.1719 Q223.1344,168.4063 224.025,169.2344 Q224.9156,170.0469 226.5094,170.0469 Q227.4469,170.0469 228.1031,169.7969 Q228.4938,169.6406 228.9156,169.2031 Q229.1813,168.9375 229.3219,168.8594 Q229.4781,168.7813 229.6813,168.7813 Q230.0094,168.7813 230.2594,169.0469 Q230.525,169.2969 230.525,169.6406 Q230.525,169.9844 230.1813,170.3906 Q229.6813,170.9688 228.8844,171.2969 Q227.8063,171.75 226.5094,171.75 Q224.9938,171.75 223.7906,171.125 Q222.8063,170.625 222.1188,169.5625 Q221.4313,168.4844 221.4313,167.2031 L221.4313,166.0469 Q221.4313,164.7188 222.0406,163.5781 Q222.6656,162.4219 223.7594,161.8125 Q224.8531,161.1875 226.0875,161.1875 Q226.8219,161.1875 227.4625,161.3594 Q228.1188,161.5156 228.6656,161.875 Z " fill="#000000" /><text fill="#000000" font-family="sans-serif" font-size="14" lengthAdjust="spacing" textLength="62" x="245.1" y="171.7285">Tab Page</text>
            <line style="stroke:#181818;stroke-width:0.5;" x1="188.5" x2="332.5" y1="182" y2="182" /><text fill="#000000" font-family="sans-serif" font-size="14" lengthAdjust="spacing" textLength="134" x="193.5" y="200.5332">response: (result,err)</text><text fill="#000000" font-family="sans-serif" font-size="14" lengthAdjust="spacing" textLength="74" x="193.5" y="218.1426">tableValues</text>
            <line style="stroke:#181818;stroke-width:0.5;" x1="188.5" x2="332.5" y1="225.2188" y2="225.2188" /><text fill="#000000" font-family="sans-serif" font-size="14" lengthAdjust="spacing" textLength="82" x="193.5" y="243.752">openDialog()</text>
        </g>
        <!--MD5=[c25c956ab0d33992fc5cdd0db284c9fa]
class Dialog-->
        <g id="elem_Dialog">
            <rect codeLine="18" fill="#F1F1F1" height="100.8281" id="Dialog" rx="2.5" ry="2.5" style="stroke:#181818;stroke-width:0.5;" width="132" x="368.5" y="150" />
            <ellipse cx="410.5" cy="166" fill="#ADD1B2" rx="11" ry="11" style="stroke:#181818;stroke-width:1.0;" />
            <path d="M413.2656,161.875 Q413.4219,161.6563 413.6094,161.5469 Q413.7969,161.4375 414.0156,161.4375 Q414.3906,161.4375 414.625,161.7031 Q414.8594,161.9531 414.8594,162.5625 L414.8594,164.0156 Q414.8594,164.625 414.625,164.8906 Q414.3906,165.1563 414.0156,165.1563 Q413.6719,165.1563 413.4688,164.9531 Q413.2656,164.7656 413.1563,164.25 Q413.1094,163.8906 412.9219,163.7031 Q412.5938,163.3281 411.9844,163.1094 Q411.375,162.8906 410.75,162.8906 Q409.9844,162.8906 409.3438,163.2188 Q408.7188,163.5469 408.2188,164.2969 Q407.7344,165.0469 407.7344,166.0781 L407.7344,167.1719 Q407.7344,168.4063 408.625,169.2344 Q409.5156,170.0469 411.1094,170.0469 Q412.0469,170.0469 412.7031,169.7969 Q413.0938,169.6406 413.5156,169.2031 Q413.7813,168.9375 413.9219,168.8594 Q414.0781,168.7813 414.2813,168.7813 Q414.6094,168.7813 414.8594,169.0469 Q415.125,169.2969 415.125,169.6406 Q415.125,169.9844 414.7813,170.3906 Q414.2813,170.9688 413.4844,171.2969 Q412.4063,171.75 411.1094,171.75 Q409.5938,171.75 408.3906,171.125 Q407.4063,170.625 406.7188,169.5625 Q406.0313,168.4844 406.0313,167.2031 L406.0313,166.0469 Q406.0313,164.7188 406.6406,163.5781 Q407.2656,162.4219 408.3594,161.8125 Q409.4531,161.1875 410.6875,161.1875 Q411.4219,161.1875 412.0625,161.3594 Q412.7188,161.5156 413.2656,161.875 Z " fill="#000000" /><text fill="#000000" font-family="sans-serif" font-size="14" lengthAdjust="spacing" textLength="40" x="430.5" y="171.7285">Dialog</text>
            <line style="stroke:#181818;stroke-width:0.5;" x1="369.5" x2="499.5" y1="182" y2="182" /><text fill="#000000" font-family="sans-serif" font-size="14" lengthAdjust="spacing" textLength="120" x="374.5" y="200.5332">submitValue: JSON</text><text fill="#000000" font-family="sans-serif" font-size="14" lengthAdjust="spacing" textLength="111" x="374.5" y="218.1426">iframeURL: String</text>
            <line style="stroke:#181818;stroke-width:0.5;" x1="369.5" x2="499.5" y1="225.2188" y2="225.2188" /><text fill="#000000" font-family="sans-serif" font-size="14" lengthAdjust="spacing" textLength="91" x="374.5" y="243.752">submitDialog()</text>
        </g>
        <!--MD5=[55183a9513598e26c7d02906975976e7]
reverse link Tab to Dialog-->
        <g id="link_Tab_Dialog">
            <path codeLine="24" d="M377.77,101.69 C386.82,117.29 396.71,134.34 405.66,149.78 " fill="none" id="Tab-backto-Dialog" style="stroke:#181818;stroke-width:1.0;" />
            <polygon fill="none" points="371.04,90.09,370.5939,97.2873,377.0659,100.4673,377.5121,93.27,371.04,90.09" style="stroke:#181818;stroke-width:1.0;" /><text fill="#000000" font-family="sans-serif" font-size="13" lengthAdjust="spacing" textLength="7" x="367.3591" y="111.8095">1</text><text fill="#000000" font-family="sans-serif" font-size="13" lengthAdjust="spacing" textLength="20" x="380.1981" y="139.0544">1..*</text>
        </g>
        <!--MD5=[1795488547bf5179ad56aa66c7cc8782]
reverse link Tab to Tab Page-->
        <g id="link_Tab_Tab Page">
            <path codeLine="25" d="M317.23,101.69 C308.18,117.29 298.29,134.34 289.34,149.78 " fill="none" id="Tab-backto-Tab Page" style="stroke:#181818;stroke-width:1.0;" />
            <polygon fill="#181818" points="323.96,90.09,317.4879,93.27,317.9341,100.4673,324.4061,97.2873,323.96,90.09" style="stroke:#181818;stroke-width:1.0;" /><text fill="#000000" font-family="sans-serif" font-size="13" lengthAdjust="spacing" textLength="7" x="312.4815" y="111.8095">1</text><text fill="#000000" font-family="sans-serif" font-size="13" lengthAdjust="spacing" textLength="20" x="271.9894" y="139.0544">1..*</text>
        </g>
        <!--MD5=[b09117bd74219e9084a73c85ab176b92]
@startuml
class Bot {
  userToken: Token
  messageCards: MessageCard[]
}

class Tab {
   authenticationToken: Token
   void sendMessageToBot()
}

class "Tab Page"{
   response: (result,err)
   tableValues
   __
   openDialog()
}

class Dialog{
  submitValue: JSON
   iframeURL: String
   submitDialog()
}

Tab "1" o- -  "1..*" Dialog
Tab "1" *- - "1..*" "Tab Page"
@enduml

PlantUML version 1.2022.5(Sat Apr 30 18:55:52 SGT 2022)
(MIT source distribution)
Java Runtime: Java(TM) SE Runtime Environment
JVM: Java HotSpot(TM) 64-Bit Server VM
Default Encoding: Cp1252
Language: en
Country: US
-->
    </g>
</svg>