<?xml version="1.0" encoding="UTF-8" standalone="no"?><svg xmlns="http://www.w3.org/2000/svg" xmlns:xlink="http://www.w3.org/1999/xlink" contentStyleType="text/css" height="306px" preserveAspectRatio="none" style="width:629px;height:306px;background:#FFFFFF;" version="1.1" viewBox="0 0 629 306" width="629px" zoomAndPan="magnify">
    <defs />
    <g>
        <rect fill="#FFFFFF" height="30.3516" style="stroke:#181818;stroke-width:1.0;" width="10" x="21.5" y="100.3125" />
        <rect fill="#FFFFFF" height="30.3516" style="stroke:#181818;stroke-width:1.0;" width="10" x="478.5" y="191.3672" />
        <line style="stroke:#181818;stroke-width:0.5;stroke-dasharray:5.0,5.0;" x1="26" x2="26" y1="37.6094" y2="270.0703" />
        <line style="stroke:#181818;stroke-width:0.5;stroke-dasharray:5.0,5.0;" x1="254.5" x2="254.5" y1="37.6094" y2="270.0703" />
        <line style="stroke:#181818;stroke-width:0.5;stroke-dasharray:5.0,5.0;" x1="483.5" x2="483.5" y1="37.6094" y2="270.0703" />
        <line style="stroke:#181818;stroke-width:0.5;stroke-dasharray:5.0,5.0;" x1="576.5" x2="576.5" y1="37.6094" y2="270.0703" />
        <rect fill="#E2E2F0" height="31.6094" rx="2.5" ry="2.5" style="stroke:#181818;stroke-width:0.5;" width="43" x="5" y="5" /><text fill="#000000" font-family="sans-serif" font-size="14" lengthAdjust="spacing" textLength="29" x="12" y="26.5332">Staff</text>
        <rect fill="#E2E2F0" height="31.6094" rx="2.5" ry="2.5" style="stroke:#181818;stroke-width:0.5;" width="43" x="5" y="269.0703" /><text fill="#000000" font-family="sans-serif" font-size="14" lengthAdjust="spacing" textLength="29" x="12" y="290.6035">Staff</text>
        <rect fill="#E2E2F0" height="31.6094" rx="2.5" ry="2.5" style="stroke:#181818;stroke-width:0.5;" width="82" x="213.5" y="5" /><text fill="#000000" font-family="sans-serif" font-size="14" lengthAdjust="spacing" textLength="68" x="220.5" y="26.5332">Teams Bot</text>
        <rect fill="#E2E2F0" height="31.6094" rx="2.5" ry="2.5" style="stroke:#181818;stroke-width:0.5;" width="82" x="213.5" y="269.0703" /><text fill="#000000" font-family="sans-serif" font-size="14" lengthAdjust="spacing" textLength="68" x="220.5" y="290.6035">Teams Bot</text>
        <rect fill="#E2E2F0" height="31.6094" rx="2.5" ry="2.5" style="stroke:#181818;stroke-width:0.5;" width="72" x="447.5" y="5" /><text fill="#000000" font-family="sans-serif" font-size="14" lengthAdjust="spacing" textLength="58" x="454.5" y="26.5332">Approver</text>
        <rect fill="#E2E2F0" height="31.6094" rx="2.5" ry="2.5" style="stroke:#181818;stroke-width:0.5;" width="72" x="447.5" y="269.0703" /><text fill="#000000" font-family="sans-serif" font-size="14" lengthAdjust="spacing" textLength="58" x="454.5" y="290.6035">Approver</text>
        <rect fill="#E2E2F0" height="31.6094" rx="2.5" ry="2.5" style="stroke:#181818;stroke-width:0.5;" width="94" x="529.5" y="5" /><text fill="#000000" font-family="sans-serif" font-size="14" lengthAdjust="spacing" textLength="80" x="536.5" y="26.5332">Organization</text>
        <rect fill="#E2E2F0" height="31.6094" rx="2.5" ry="2.5" style="stroke:#181818;stroke-width:0.5;" width="94" x="529.5" y="269.0703" /><text fill="#000000" font-family="sans-serif" font-size="14" lengthAdjust="spacing" textLength="80" x="536.5" y="290.6035">Organization</text>
        <rect fill="#FFFFFF" height="30.3516" style="stroke:#181818;stroke-width:1.0;" width="10" x="21.5" y="100.3125" />
        <rect fill="#FFFFFF" height="30.3516" style="stroke:#181818;stroke-width:1.0;" width="10" x="478.5" y="191.3672" />
        <polygon fill="#181818" points="242.5,65.9609,252.5,69.9609,242.5,73.9609,246.5,69.9609" style="stroke:#181818;stroke-width:1.0;" />
        <line style="stroke:#181818;stroke-width:1.0;" x1="26.5" x2="248.5" y1="69.9609" y2="69.9609" /><text fill="#000000" font-family="sans-serif" font-size="13" lengthAdjust="spacing" textLength="121" x="33.5" y="65.1045">Request for Discount</text>
        <polygon fill="#181818" points="42.5,96.3125,32.5,100.3125,42.5,104.3125,38.5,100.3125" style="stroke:#181818;stroke-width:1.0;" />
        <line style="stroke:#181818;stroke-width:1.0;" x1="36.5" x2="253.5" y1="100.3125" y2="100.3125" /><text fill="#000000" font-family="sans-serif" font-size="13" lengthAdjust="spacing" textLength="72" x="48.5" y="95.4561">Return Form</text>
        <polygon fill="#181818" points="242.5,126.6641,252.5,130.6641,242.5,134.6641,246.5,130.6641" style="stroke:#181818;stroke-width:1.0;" />
        <line style="stroke:#181818;stroke-width:1.0;stroke-dasharray:2.0,2.0;" x1="26.5" x2="248.5" y1="130.6641" y2="130.6641" /><text fill="#000000" font-family="sans-serif" font-size="13" lengthAdjust="spacing" textLength="199" x="33.5" y="125.8076">Fill up Form and Send for Approval</text>
        <line style="stroke:#181818;stroke-width:1.0;" x1="574.5" x2="564.5" y1="161.0156" y2="157.0156" />
        <line style="stroke:#181818;stroke-width:1.0;" x1="574.5" x2="564.5" y1="161.0156" y2="165.0156" />
        <line style="stroke:#181818;stroke-width:1.0;" x1="254.5" x2="575.5" y1="161.0156" y2="161.0156" /><text fill="#000000" font-family="sans-serif" font-size="13" lengthAdjust="spacing" textLength="116" x="261.5" y="156.1592">Notify about request</text>
        <polygon fill="#181818" points="466.5,187.3672,476.5,191.3672,466.5,195.3672,470.5,191.3672" style="stroke:#181818;stroke-width:1.0;" />
        <line style="stroke:#181818;stroke-width:1.0;" x1="254.5" x2="472.5" y1="191.3672" y2="191.3672" /><text fill="#000000" font-family="sans-serif" font-size="13" lengthAdjust="spacing" textLength="126" x="261.5" y="186.5107">Notify and Send Form</text>
        <polygon fill="#181818" points="265.5,217.7188,255.5,221.7188,265.5,225.7188,261.5,221.7188" style="stroke:#181818;stroke-width:1.0;" />
        <line style="stroke:#181818;stroke-width:1.0;stroke-dasharray:2.0,2.0;" x1="259.5" x2="482.5" y1="221.7188" y2="221.7188" /><text fill="#000000" font-family="sans-serif" font-size="13" lengthAdjust="spacing" textLength="200" x="271.5" y="216.8623">Fill up Form and Approve or Reject</text>
        <line style="stroke:#181818;stroke-width:1.0;" x1="26.5" x2="36.5" y1="252.0703" y2="248.0703" />
        <line style="stroke:#181818;stroke-width:1.0;" x1="26.5" x2="36.5" y1="252.0703" y2="256.0703" />
        <line style="stroke:#181818;stroke-width:1.0;" x1="26.5" x2="253.5" y1="252.0703" y2="252.0703" /><text fill="#000000" font-family="sans-serif" font-size="13" lengthAdjust="spacing" textLength="87" x="43.5" y="247.2139">Notify outcome</text>
        <!--MD5=[5d6a62e30b045a866332de434e9f7e70]
@startuml
participant Staff as staff
participant "Teams Bot" as bot
participant Approver

participant Organization as organization

staff -> bot: Request for Discount
bot-> staff: Return Form
activate staff
return Fill up Form and Send for Approval
bot ->> organization: Notify about request
bot -> Approver: Notify and Send Form
activate Approver
return Fill up Form and Approve or Reject
bot ->> staff: Notify outcome

@enduml

PlantUML version 1.2022.5(Sat Apr 30 18:55:52 SGT 2022)
(MIT source distribution)
Java Runtime: Java(TM) SE Runtime Environment
JVM: Java HotSpot(TM) 64-Bit Server VM
Default Encoding: Cp1252
Language: en
Country: US
-->
    </g>
</svg>