<?xml version="1.0" encoding="UTF-8" standalone="no"?><svg xmlns="http://www.w3.org/2000/svg" xmlns:xlink="http://www.w3.org/1999/xlink" contentStyleType="text/css" height="741px" preserveAspectRatio="none" style="width:1016px;height:741px;background:#FFFFFF;" version="1.1" viewBox="0 0 1016 741" width="1016px" zoomAndPan="magnify">
    <defs />
    <g>
        <!--MD5=[2bc226f05bcccf3e95a8e27b186c617c]
cluster Discount App-->
        <g id="cluster_Discount App">
            <rect height="522" rx="2.5" ry="2.5" style="stroke:#181818;stroke-width:1.0;fill:none;" width="891" x="119" y="7" /><text fill="#000000" font-family="sans-serif" font-size="14" font-weight="bold" lengthAdjust="spacing" textLength="93" x="518" y="23.5332">Discount App</text>
        </g>
        <g id="elem_UC1">
            <ellipse cx="234.5785" cy="265.2157" fill="#F1F1F1" rx="79.0785" ry="18.2157" style="stroke:#181818;stroke-width:0.5;" /><text fill="#000000" font-family="sans-serif" font-size="14" lengthAdjust="spacing" textLength="112" x="177.1751" y="269.3395">Request Discount</text>
        </g>
        <g id="elem_UC2">
            <ellipse cx="234.613" cy="340.8226" fill="#F1F1F1" rx="99.613" ry="22.3226" style="stroke:#181818;stroke-width:0.5;" /><text fill="#000000" font-family="sans-serif" font-size="14" lengthAdjust="spacing" textLength="160" x="154.613" y="344.5511">View Requests/Approvals</text>
        </g>
        <g id="elem_UC3">
            <ellipse cx="234.7256" cy="415.9451" fill="#F1F1F1" rx="75.2256" ry="17.4451" style="stroke:#181818;stroke-width:0.5;" /><text fill="#000000" font-family="sans-serif" font-size="14" lengthAdjust="spacing" textLength="102" x="180.7256" y="420.4617">Update Request</text>
        </g>
        <g id="elem_UC4">
            <ellipse cx="234.4525" cy="490.7905" fill="#F1F1F1" rx="96.9525" ry="21.7905" style="stroke:#181818;stroke-width:0.5;" /><text fill="#000000" font-family="sans-serif" font-size="14" lengthAdjust="spacing" textLength="154" x="157.4525" y="494.519">Approve/Reject Request</text>
        </g>
        <g id="elem_UC5">
            <ellipse cx="234.6476" cy="194.9295" fill="#F1F1F1" rx="72.6476" ry="16.9295" style="stroke:#181818;stroke-width:0.5;" /><text fill="#000000" font-family="sans-serif" font-size="14" lengthAdjust="spacing" textLength="95" x="184.1476" y="199.4461">Route Request</text>
        </g>
        <g id="elem_UC6">
            <ellipse cx="522.4763" cy="265.0953" fill="#F1F1F1" rx="75.9763" ry="17.5953" style="stroke:#181818;stroke-width:0.5;" /><text fill="#000000" font-family="sans-serif" font-size="14" lengthAdjust="spacing" textLength="104" x="467.5467" y="269.5957">Notify Approvers</text>
        </g>
        <g id="elem_UC7">
            <ellipse cx="522.6685" cy="478.0838" fill="#F1F1F1" rx="60.1685" ry="15.5838" style="stroke:#181818;stroke-width:0.5;" /><text fill="#000000" font-family="sans-serif" font-size="14" lengthAdjust="spacing" textLength="68" x="485.6685" y="482.6004">Notify Staff</text>
        </g>
        <g id="elem_UC9">
            <ellipse cx="234.457" cy="125.7914" fill="#F1F1F1" rx="69.457" ry="16.2914" style="stroke:#181818;stroke-width:0.5;" /><text fill="#000000" font-family="sans-serif" font-size="14" lengthAdjust="spacing" textLength="86" x="188.457" y="130.308">Register User</text>
        </g>
        <g id="elem_UC10">
            <ellipse cx="522.2877" cy="194.0575" fill="#F1F1F1" rx="78.2877" ry="18.0575" style="stroke:#181818;stroke-width:0.5;" /><text fill="#000000" font-family="sans-serif" font-size="14" lengthAdjust="spacing" textLength="110" x="465.5149" y="198.2774">Update Database</text>
        </g>
        <g id="elem_UC11">
            <ellipse cx="522.4074" cy="125.0891" fill="#F1F1F1" rx="60.9074" ry="15.5891" style="stroke:#181818;stroke-width:0.5;" /><text fill="#000000" font-family="sans-serif" font-size="14" lengthAdjust="spacing" textLength="69" x="484.9074" y="129.6057">Verify User</text>
        </g>
        <g id="elem_UC12">
            <ellipse cx="883.3297" cy="351.0659" fill="#FF0000" rx="90.8297" ry="20.5659" style="stroke:#181818;stroke-width:0.5;" /><text fill="#000000" font-family="sans-serif" font-size="14" lengthAdjust="spacing" textLength="140" x="813.3297" y="354.7945">Unauthorized Request</text>
        </g>
        <g id="elem_UC13">
            <ellipse cx="883.434" cy="230.9868" fill="#FF0000" rx="110.434" ry="24.4868" style="stroke:#181818;stroke-width:0.5;" /><text fill="#000000" font-family="sans-serif" font-size="14" lengthAdjust="spacing" textLength="184" x="791.434" y="234.7153">Unauthorized Approve/Reject</text>
        </g>
        <g id="elem_UC14">
            <ellipse cx="234.6685" cy="59.0838" fill="#F1F1F1" rx="60.1685" ry="15.5838" style="stroke:#181818;stroke-width:0.5;" /><text fill="#000000" font-family="sans-serif" font-size="14" lengthAdjust="spacing" textLength="68" x="197.6685" y="63.6004">Login User</text>
        </g>
        <!--MD5=[d8322213e5f4465576b8bf70cd9bce59]
entity s-->
        <g id="elem_s">
            <ellipse cx="39" cy="221.5" fill="#F1F1F1" rx="8" ry="8" style="stroke:#181818;stroke-width:0.5;" />
            <path d="M39,229.5 L39,256.5 M26,237.5 L52,237.5 M39,256.5 L26,271.5 M39,256.5 L52,271.5 " fill="none" style="stroke:#181818;stroke-width:0.5;" /><text fill="#000000" font-family="sans-serif" font-size="14" lengthAdjust="spacing" textLength="29" x="24.5" y="287.5332">Staff</text>
        </g>
        <!--MD5=[f83ae91a690dfc657e1c5fbbd818f13d]
entity a-->
        <g id="elem_a">
            <ellipse cx="39" cy="364.5" fill="#F1F1F1" rx="8" ry="8" style="stroke:#181818;stroke-width:0.5;" />
            <path d="M39,372.5 L39,399.5 M26,380.5 L52,380.5 M39,399.5 L26,414.5 M39,399.5 L52,414.5 " fill="none" style="stroke:#181818;stroke-width:0.5;" /><text fill="#000000" font-family="sans-serif" font-size="14" lengthAdjust="spacing" textLength="66" x="6" y="430.5332">Approver1</text>
        </g>
        <!--MD5=[5d12e840fb55afd9ed7b3559a638e8f7]
entity b-->
        <g id="elem_b">
            <ellipse cx="883.5" cy="666.5" fill="#F1F1F1" rx="8" ry="8" style="stroke:#181818;stroke-width:0.5;" />
            <path d="M883.5,674.5 L883.5,701.5 M870.5,682.5 L896.5,682.5 M883.5,701.5 L870.5,716.5 M883.5,701.5 L896.5,716.5 " fill="none" style="stroke:#181818;stroke-width:0.5;" /><text fill="#000000" font-family="sans-serif" font-size="14" lengthAdjust="spacing" textLength="55" x="856" y="732.5332">Backend</text>
        </g>
        <!--MD5=[c617d1e94391e02d80a02faf38d11fae]
entity m-->
        <g id="elem_m">
            <ellipse cx="883.5" cy="553.5" fill="#FF0000" rx="8" ry="8" style="stroke:#181818;stroke-width:0.5;" />
            <path d="M883.5,561.5 L883.5,588.5 M870.5,569.5 L896.5,569.5 M883.5,588.5 L870.5,603.5 M883.5,588.5 L896.5,603.5 " fill="none" style="stroke:#181818;stroke-width:0.5;" /><text fill="#000000" font-family="sans-serif" font-size="14" lengthAdjust="spacing" textLength="91" x="838" y="619.5332">Malicious User</text>
        </g>
        <!--MD5=[aa9d2cfd37f9b85e856ad6a1e4475780]
link UC1 to UC6-->
        <g id="link_UC1_UC6">
            <path d="M313.65,265 C353.22,265 401.2,265 441.08,265 " fill="none" id="UC1-to-UC6" style="stroke:#181818;stroke-width:1.0;" />
            <polygon fill="#181818" points="446.4,265,437.4,261,441.4,265,437.4,269,446.4,265" style="stroke:#181818;stroke-width:1.0;" /><text fill="#000000" font-family="sans-serif" font-size="13" lengthAdjust="spacing" textLength="48" x="365" y="261.4951">includes</text>
        </g>
        <!--MD5=[3ab3c4f0aa88f122bda36575115a204e]
link UC5 to UC6-->
        <g id="link_UC5_UC6">
            <path d="M285.32,207.19 C335.4,219.45 412.48,238.32 464.85,251.14 " fill="none" id="UC5-to-UC6" style="stroke:#181818;stroke-width:1.0;" />
            <polygon fill="#181818" points="469.84,252.36,462.0454,246.3397,464.9826,251.1742,460.1481,254.1115,469.84,252.36" style="stroke:#181818;stroke-width:1.0;" /><text fill="#000000" font-family="sans-serif" font-size="13" lengthAdjust="spacing" textLength="48" x="365" y="224.4951">includes</text>
        </g>
        <!--MD5=[5de79bcd4d0d9c382e7637adece796ee]
link UC4 to UC7-->
        <g id="link_UC4_UC7">
            <path d="M329.94,486.71 C371.98,484.8 420.38,482.6 458.01,480.89 " fill="none" id="UC4-to-UC7" style="stroke:#181818;stroke-width:1.0;" />
            <polygon fill="#181818" points="463.01,480.66,453.8363,477.0764,458.0152,480.889,454.2026,485.068,463.01,480.66" style="stroke:#181818;stroke-width:1.0;" /><text fill="#000000" font-family="sans-serif" font-size="13" lengthAdjust="spacing" textLength="48" x="365" y="479.4951">includes</text>
        </g>
        <!--MD5=[901165f40959f6aff952005c627ca22d]
link UC14 to UC11-->
        <g id="link_UC14_UC11">
            <path d="M279.87,69.24 C331.7,81.2 417.24,100.94 471.41,113.44 " fill="none" id="UC14-to-UC11" style="stroke:#181818;stroke-width:1.0;" />
            <polygon fill="#181818" points="476.55,114.63,468.685,108.702,471.679,113.5015,466.8794,116.4955,476.55,114.63" style="stroke:#181818;stroke-width:1.0;" /><text fill="#000000" font-family="sans-serif" font-size="13" lengthAdjust="spacing" textLength="48" x="365" y="87.4951">includes</text>
        </g>
        <!--MD5=[09d7d8cb12d9fa4251882f1ab45300ac]
link UC11 to UC12-->
        <g id="link_UC11_UC12">
            <path d="M558.83,137.66 C572.42,143.14 587.83,150.11 601,158 C630.83,175.87 633.85,186.58 662,207 C725.15,252.81 802.08,301.53 846.37,328.93 " fill="none" id="UC11-to-UC12" style="stroke:#181818;stroke-width:1.0;" />
            <polygon fill="#181818" points="850.81,331.67,845.2659,323.5298,846.5596,329.0367,841.0527,330.3305,850.81,331.67" style="stroke:#181818;stroke-width:1.0;" /><text fill="#000000" font-family="sans-serif" font-size="13" lengthAdjust="spacing" textLength="48" x="663" y="203.4951">prevents</text>
        </g>
        <!--MD5=[ba66c1e12e800784ecc5435f6c36de73]
link UC11 to UC13-->
        <g id="link_UC11_UC13">
            <path d="M562.95,136.65 C622.65,154.28 736.89,188.01 811.37,210 " fill="none" id="UC11-to-UC13" style="stroke:#181818;stroke-width:1.0;" />
            <polygon fill="#181818" points="816.21,211.43,808.7075,205.0494,811.4139,210.0169,806.4464,212.7232,816.21,211.43" style="stroke:#181818;stroke-width:1.0;" /><text fill="#000000" font-family="sans-serif" font-size="13" lengthAdjust="spacing" textLength="48" x="663" y="162.4951">prevents</text>
        </g>
        <!--MD5=[766679404c4c999e4cf4dcfe94687ae6]
link UC9 to UC10-->
        <g id="link_UC9_UC10">
            <path d="M284.34,137.61 C333.49,149.3 409.35,167.34 461.99,179.85 " fill="none" id="UC9-to-UC10" style="stroke:#181818;stroke-width:1.0;" />
            <polygon fill="#181818" points="467.01,181.04,459.1781,175.0683,462.1454,179.8845,457.3292,182.8518,467.01,181.04" style="stroke:#181818;stroke-width:1.0;" />
        </g>
        <!--MD5=[8a4b5f0fd3939fac8f36ece58abd065a]
link m to UC12-->
        <g id="link_m_UC12">
            <path d="M883.5,544.86 C883.5,487.18 883.5,429.5 883.5,371.83 " fill="none" id="m-UC12" style="stroke:#181818;stroke-width:1.0;" />
        </g>
        <!--MD5=[3e14623d7d2c0b2e0504b0e727a19ef9]
link m to UC13-->
        <g id="link_m_UC13">
            <path d="M837.9,574.31 C804.79,564.58 762.43,545.92 742.5,511.5 C702.18,441.89 705.49,401.92 742.5,330.5 C761.11,294.59 799.3,268.88 831.25,252.61 " fill="none" id="m-UC13" style="stroke:#181818;stroke-width:1.0;" />
        </g>
        <!--MD5=[0c1f5b2aba23facd9e2aeb333553c598]
link s to UC9-->
        <g id="link_s_UC9">
            <path d="M53.52,226.43 C65.83,205.57 85.89,176.89 111,160 C129.77,147.37 153.15,139.41 174.44,134.39 " fill="none" id="s-UC9" style="stroke:#181818;stroke-width:1.0;" />
        </g>
        <!--MD5=[1d5e614dd8463a8829c087e6e23322a4]
link a to UC9-->
        <g id="link_a_UC9">
            <path d="M55.29,355.86 C60.87,340.98 67.02,323.81 72,308 C77.11,291.78 99.05,172.1 111,160 C126.19,144.61 147.71,136.02 168.47,131.28 " fill="none" id="a-UC9" style="stroke:#181818;stroke-width:1.0;" />
        </g>
        <!--MD5=[ced53a2e1ee50106e9ee477c87b6a0fe]
link a to UC4-->
        <g id="link_a_UC4">
            <path d="M72.25,424.36 C83.85,433.83 97.44,443.74 111,451 C129.05,460.67 149.84,468.53 169.11,474.65 " fill="none" id="a-UC4" style="stroke:#181818;stroke-width:1.0;" />
        </g>
        <!--MD5=[9a225dd836e694e75e64a328ea686656]
link s to UC1-->
        <g id="link_s_UC1">
            <path d="M53.61,252.91 C75.28,254.37 119.2,257.32 158.22,259.94 " fill="none" id="s-UC1" style="stroke:#181818;stroke-width:1.0;" />
        </g>
        <!--MD5=[ab1c5db9e7ea4db265d3484f4f97f7b8]
link s to UC2-->
        <g id="link_s_UC2">
            <path d="M53.72,262.94 C67.54,273.55 89.79,289.52 111,300 C129.8,309.29 151.21,317.26 170.81,323.64 " fill="none" id="s-UC2" style="stroke:#181818;stroke-width:1.0;" />
        </g>
        <!--MD5=[46a88b67fe0fb697a9d600a230bce57d]
link a to UC2-->
        <g id="link_a_UC2">
            <path d="M72.39,385.96 C99.28,378.46 138.33,367.56 171.24,358.37 " fill="none" id="a-UC2" style="stroke:#181818;stroke-width:1.0;" />
        </g>
        <!--MD5=[edf70f88007b3901b64f31ed49bfd97b]
link a to UC3-->
        <g id="link_a_UC3">
            <path d="M72.39,398.51 C97.89,401.28 134.3,405.23 166.06,408.68 " fill="none" id="a-UC3" style="stroke:#181818;stroke-width:1.0;" />
        </g>
        <!--MD5=[f56e13cbbe666032724f9d00648d8760]
link UC10 to b-->
        <g id="link_UC10_b">
            <path d="M569.34,208.57 C580.78,213.89 592.26,220.91 601,230 C738.3,372.69 638.43,495.74 773,641 C795.64,665.44 831.35,680.89 855.79,689.23 " fill="none" id="UC10-b" style="stroke:#181818;stroke-width:1.0;" />
        </g>
        <!--MD5=[08e8bc04e3972ea7529190e08a446c65]
link UC2 to b-->
        <g id="link_UC2_b">
            <path d="M301.12,357.73 C313.4,363.41 325.14,370.97 334,381 C368.11,419.63 329.68,454.56 364,493 C501.55,647.06 770.3,686.04 855.75,694.74 " fill="none" id="UC2-b" style="stroke:#181818;stroke-width:1.0;" />
        </g>
        <!--MD5=[5045c136c827a8ae18ae5c8a6cb17de5]
@startuml
left to right direction
actor Staff as s
actor Approver1 as a
actor Backend as b
actor "Malicious User" as m #red

rectangle "Discount App" {
  usecase "Request Discount" as UC1
  usecase "View Requests/Approvals" as UC2
  usecase "Update Request" as UC3
  usecase "Approve/Reject Request" as UC4
  usecase "Route Request" as UC5
  usecase "Notify Approvers" as UC6
  usecase "Notify Staff" as UC7
  usecase "Register User" as UC9
  usecase "Update Database" as UC10
  usecase "Verify User" as UC11
  usecase "Unauthorized Request" as UC12 #red
  usecase "Unauthorized Approve/Reject" as UC13 #red
  usecase "Login User" as UC14
}

UC1 - -> UC6: includes
UC5 - -> UC6: includes
UC4 - -> UC7: includes
UC14 - -> UC11: includes
UC11 - - -> UC12: prevents
UC11 - - -> UC13: prevents

UC9 - -> UC10

m - UC12
m - UC13
s - UC9
a - UC9
a - - UC4
s - - UC1
s - UC2
a - UC2
a - - UC3

UC10 - - - b
UC2 - - - b
@enduml

PlantUML version 1.2022.5(Sat Apr 30 18:55:52 SGT 2022)
(MIT source distribution)
Java Runtime: Java(TM) SE Runtime Environment
JVM: Java HotSpot(TM) 64-Bit Server VM
Default Encoding: Cp1252
Language: en
Country: US
-->
    </g>
</svg>