<?xml version="1.0" encoding="UTF-8" standalone="no"?><svg xmlns="http://www.w3.org/2000/svg" xmlns:xlink="http://www.w3.org/1999/xlink" contentStyleType="text/css" height="742px" preserveAspectRatio="none" style="width:1016px;height:742px;background:#FFFFFF;" version="1.1" viewBox="0 0 1016 742" width="1016px" zoomAndPan="magnify">
    <defs />
    <g>
        <!--MD5=[2bc226f05bcccf3e95a8e27b186c617c]
cluster Discount App-->
        <g id="cluster_Discount App">
            <rect height="523" rx="2.5" ry="2.5" style="stroke:#181818;stroke-width:1.0;fill:none;" width="891" x="119" y="7" /><text fill="#000000" font-family="sans-serif" font-size="14" font-weight="bold" lengthAdjust="spacing" textLength="93" x="518" y="23.5332">Discount App</text>
        </g>
        <g id="elem_UC1">
            <ellipse cx="234.5785" cy="128.2157" fill="#F1F1F1" rx="79.0785" ry="18.2157" style="stroke:#181818;stroke-width:0.5;" /><text fill="#000000" font-family="sans-serif" font-size="14" lengthAdjust="spacing" textLength="112" x="177.1751" y="132.3395">Request Discount</text>
        </g>
        <g id="elem_UC2">
            <ellipse cx="234.613" cy="420.8226" fill="#F1F1F1" rx="99.613" ry="22.3226" style="stroke:#181818;stroke-width:0.5;" /><text fill="#000000" font-family="sans-serif" font-size="14" lengthAdjust="spacing" textLength="160" x="154.613" y="424.5511">View Requests/Approvals</text>
        </g>
        <g id="elem_UC3">
            <ellipse cx="234.7256" cy="495.9451" fill="#F1F1F1" rx="75.2256" ry="17.4451" style="stroke:#181818;stroke-width:0.5;" /><text fill="#000000" font-family="sans-serif" font-size="14" lengthAdjust="spacing" textLength="102" x="180.7256" y="500.4617">Update Request</text>
        </g>
        <g id="elem_UC4">
            <ellipse cx="234.4525" cy="340.7905" fill="#F1F1F1" rx="96.9525" ry="21.7905" style="stroke:#181818;stroke-width:0.5;" /><text fill="#000000" font-family="sans-serif" font-size="14" lengthAdjust="spacing" textLength="154" x="157.4525" y="344.519">Approve/Reject Request</text>
        </g>
        <g id="elem_UC5">
            <ellipse cx="234.6476" cy="197.9295" fill="#F1F1F1" rx="72.6476" ry="16.9295" style="stroke:#181818;stroke-width:0.5;" /><text fill="#000000" font-family="sans-serif" font-size="14" lengthAdjust="spacing" textLength="95" x="184.1476" y="202.4461">Route Request</text>
        </g>
        <g id="elem_UC6">
            <ellipse cx="522.4763" cy="198.0953" fill="#F1F1F1" rx="75.9763" ry="17.5953" style="stroke:#181818;stroke-width:0.5;" /><text fill="#000000" font-family="sans-serif" font-size="14" lengthAdjust="spacing" textLength="104" x="467.5467" y="202.5957">Notify Approvers</text>
        </g>
        <g id="elem_UC7">
            <ellipse cx="522.6685" cy="341.0838" fill="#F1F1F1" rx="60.1685" ry="15.5838" style="stroke:#181818;stroke-width:0.5;" /><text fill="#000000" font-family="sans-serif" font-size="14" lengthAdjust="spacing" textLength="68" x="485.6685" y="345.6004">Notify Staff</text>
        </g>
        <g id="elem_UC9">
            <ellipse cx="234.457" cy="266.7914" fill="#F1F1F1" rx="69.457" ry="16.2914" style="stroke:#181818;stroke-width:0.5;" /><text fill="#000000" font-family="sans-serif" font-size="14" lengthAdjust="spacing" textLength="86" x="188.457" y="271.308">Register User</text>
        </g>
        <g id="elem_UC10">
            <ellipse cx="522.2877" cy="270.0575" fill="#F1F1F1" rx="78.2877" ry="18.0575" style="stroke:#181818;stroke-width:0.5;" /><text fill="#000000" font-family="sans-serif" font-size="14" lengthAdjust="spacing" textLength="110" x="465.5149" y="274.2774">Update Database</text>
        </g>
        <g id="elem_UC11">
            <ellipse cx="522.4074" cy="130.0891" fill="#F1F1F1" rx="60.9074" ry="15.5891" style="stroke:#181818;stroke-width:0.5;" /><text fill="#000000" font-family="sans-serif" font-size="14" lengthAdjust="spacing" textLength="69" x="484.9074" y="134.6057">Verify User</text>
        </g>
        <g id="elem_UC12">
            <ellipse cx="883.3297" cy="354.0659" fill="#FF0000" rx="90.8297" ry="20.5659" style="stroke:#181818;stroke-width:0.5;" /><text fill="#000000" font-family="sans-serif" font-size="14" lengthAdjust="spacing" textLength="140" x="813.3297" y="357.7945">Unauthorized Request</text>
        </g>
        <g id="elem_UC13">
            <ellipse cx="883.434" cy="234.9868" fill="#FF0000" rx="110.434" ry="24.4868" style="stroke:#181818;stroke-width:0.5;" /><text fill="#000000" font-family="sans-serif" font-size="14" lengthAdjust="spacing" textLength="184" x="791.434" y="238.7153">Unauthorized Approve/Reject</text>
        </g>
        <g id="elem_UC14">
            <ellipse cx="234.6685" cy="59.0838" fill="#F1F1F1" rx="60.1685" ry="15.5838" style="stroke:#181818;stroke-width:0.5;" /><text fill="#000000" font-family="sans-serif" font-size="14" lengthAdjust="spacing" textLength="68" x="197.6685" y="63.6004">Login User</text>
        </g>
        <!--MD5=[d8322213e5f4465576b8bf70cd9bce59]
entity s-->
        <g id="elem_s">
            <ellipse cx="39" cy="140.5" fill="#F1F1F1" rx="8" ry="8" style="stroke:#181818;stroke-width:0.5;" />
            <path d="M39,148.5 L39,175.5 M26,156.5 L52,156.5 M39,175.5 L26,190.5 M39,175.5 L52,190.5 " fill="none" style="stroke:#181818;stroke-width:0.5;" /><text fill="#000000" font-family="sans-serif" font-size="14" lengthAdjust="spacing" textLength="29" x="24.5" y="206.5332">Staff</text>
        </g>
        <!--MD5=[f83ae91a690dfc657e1c5fbbd818f13d]
entity a-->
        <g id="elem_a">
            <ellipse cx="39" cy="345.5" fill="#F1F1F1" rx="8" ry="8" style="stroke:#181818;stroke-width:0.5;" />
            <path d="M39,353.5 L39,380.5 M26,361.5 L52,361.5 M39,380.5 L26,395.5 M39,380.5 L52,395.5 " fill="none" style="stroke:#181818;stroke-width:0.5;" /><text fill="#000000" font-family="sans-serif" font-size="14" lengthAdjust="spacing" textLength="66" x="6" y="411.5332">Approver1</text>
        </g>
        <!--MD5=[5d12e840fb55afd9ed7b3559a638e8f7]
entity b-->
        <g id="elem_b">
            <ellipse cx="883.5" cy="667.5" fill="#F1F1F1" rx="8" ry="8" style="stroke:#181818;stroke-width:0.5;" />
            <path d="M883.5,675.5 L883.5,702.5 M870.5,683.5 L896.5,683.5 M883.5,702.5 L870.5,717.5 M883.5,702.5 L896.5,717.5 " fill="none" style="stroke:#181818;stroke-width:0.5;" /><text fill="#000000" font-family="sans-serif" font-size="14" lengthAdjust="spacing" textLength="55" x="856" y="733.5332">Backend</text>
        </g>
        <!--MD5=[c617d1e94391e02d80a02faf38d11fae]
entity m-->
        <g id="elem_m">
            <ellipse cx="883.5" cy="554.5" fill="#FF0000" rx="8" ry="8" style="stroke:#181818;stroke-width:0.5;" />
            <path d="M883.5,562.5 L883.5,589.5 M870.5,570.5 L896.5,570.5 M883.5,589.5 L870.5,604.5 M883.5,589.5 L896.5,604.5 " fill="none" style="stroke:#181818;stroke-width:0.5;" /><text fill="#000000" font-family="sans-serif" font-size="14" lengthAdjust="spacing" textLength="91" x="838" y="620.5332">Malicious User</text>
        </g>
        <!--MD5=[aa9d2cfd37f9b85e856ad6a1e4475780]
link UC1 to UC6-->
        <g id="link_UC1_UC6">
            <path d="M288.96,141.08 C339.08,153.35 413.75,171.63 464.88,184.14 " fill="none" id="UC1-to-UC6" style="stroke:#181818;stroke-width:1.0;" />
            <polygon fill="#181818" points="469.75,185.33,461.9595,179.3044,464.8934,184.1409,460.0569,187.0749,469.75,185.33" style="stroke:#181818;stroke-width:1.0;" /><text fill="#000000" font-family="sans-serif" font-size="13" lengthAdjust="spacing" textLength="48" x="365" y="157.4951">includes</text>
        </g>
        <!--MD5=[3ab3c4f0aa88f122bda36575115a204e]
link UC5 to UC6-->
        <g id="link_UC5_UC6">
            <path d="M307.3,198 C348.08,198 399.24,198 441.33,198 " fill="none" id="UC5-to-UC6" style="stroke:#181818;stroke-width:1.0;" />
            <polygon fill="#181818" points="446.42,198,437.42,194,441.42,198,437.42,202,446.42,198" style="stroke:#181818;stroke-width:1.0;" /><text fill="#000000" font-family="sans-serif" font-size="13" lengthAdjust="spacing" textLength="48" x="365" y="194.4951">includes</text>
        </g>
        <!--MD5=[5de79bcd4d0d9c382e7637adece796ee]
link UC4 to UC7-->
        <g id="link_UC4_UC7">
            <path d="M331.53,341 C372.83,341 420,341 457.01,341 " fill="none" id="UC4-to-UC7" style="stroke:#181818;stroke-width:1.0;" />
            <polygon fill="#181818" points="462.4,341,453.4,337,457.4,341,453.4,345,462.4,341" style="stroke:#181818;stroke-width:1.0;" /><text fill="#000000" font-family="sans-serif" font-size="13" lengthAdjust="spacing" textLength="48" x="365" y="337.4951">includes</text>
        </g>
        <!--MD5=[901165f40959f6aff952005c627ca22d]
link UC14 to UC11-->
        <g id="link_UC14_UC11">
            <path d="M278.32,69.63 C330.4,82.56 418.11,104.33 472.74,117.9 " fill="none" id="UC14-to-UC11" style="stroke:#181818;stroke-width:1.0;" />
            <polygon fill="#181818" points="477.92,119.18,470.1421,113.1381,473.0659,117.9808,468.2233,120.9046,477.92,119.18" style="stroke:#181818;stroke-width:1.0;" /><text fill="#000000" font-family="sans-serif" font-size="13" lengthAdjust="spacing" textLength="48" x="365" y="89.4951">includes</text>
        </g>
        <!--MD5=[09d7d8cb12d9fa4251882f1ab45300ac]
link UC11 to UC12-->
        <g id="link_UC11_UC12">
            <path d="M558.83,142.66 C572.42,148.14 587.83,155.11 601,163 C630.83,180.87 633.79,191.67 662,212 C724.86,257.3 801.57,305.11 845.95,332.09 " fill="none" id="UC11-to-UC12" style="stroke:#181818;stroke-width:1.0;" />
            <polygon fill="#181818" points="850.41,334.79,844.802,326.6937,846.139,332.1903,840.6424,333.5273,850.41,334.79" style="stroke:#181818;stroke-width:1.0;" /><text fill="#000000" font-family="sans-serif" font-size="13" lengthAdjust="spacing" textLength="48" x="663" y="208.4951">prevents</text>
        </g>
        <!--MD5=[ba66c1e12e800784ecc5435f6c36de73]
link UC11 to UC13-->
        <g id="link_UC11_UC13">
            <path d="M563.29,141.64 C623.04,159.11 736.86,192.4 811.19,214.14 " fill="none" id="UC11-to-UC13" style="stroke:#181818;stroke-width:1.0;" />
            <polygon fill="#181818" points="816.02,215.56,808.5175,209.1794,811.2239,214.1469,806.2564,216.8532,816.02,215.56" style="stroke:#181818;stroke-width:1.0;" /><text fill="#000000" font-family="sans-serif" font-size="13" lengthAdjust="spacing" textLength="48" x="663" y="167.4951">prevents</text>
        </g>
        <!--MD5=[766679404c4c999e4cf4dcfe94687ae6]
link UC9 to UC10-->
        <g id="link_UC9_UC10">
            <path d="M304,267.72 C344.5,268.14 396.05,268.68 438.8,269.13 " fill="none" id="UC9-to-UC10" style="stroke:#181818;stroke-width:1.0;" />
            <polygon fill="#181818" points="443.97,269.19,435.0163,265.0874,438.9703,269.1329,434.9249,273.0869,443.97,269.19" style="stroke:#181818;stroke-width:1.0;" />
        </g>
        <!--MD5=[8a4b5f0fd3939fac8f36ece58abd065a]
link m to UC12-->
        <g id="link_m_UC12">
            <path d="M883.5,545.75 C883.5,488.7 883.5,431.65 883.5,374.6 " fill="none" id="m-UC12" style="stroke:#181818;stroke-width:1.0;" />
        </g>
        <!--MD5=[3e14623d7d2c0b2e0504b0e727a19ef9]
link m to UC13-->
        <g id="link_m_UC13">
            <path d="M837.9,575.31 C804.79,565.58 762.43,546.92 742.5,512.5 C702.63,443.66 705.73,404.05 742.5,333.5 C761,298.02 798.76,272.69 830.56,256.61 " fill="none" id="m-UC13" style="stroke:#181818;stroke-width:1.0;" />
        </g>
        <!--MD5=[0c1f5b2aba23facd9e2aeb333553c598]
link s to UC9-->
        <g id="link_s_UC9">
            <path d="M53.56,185.88 C66.92,199.7 88.54,219.9 111,232 C132.13,243.38 157.35,251.4 179.4,256.87 " fill="none" id="s-UC9" style="stroke:#181818;stroke-width:1.0;" />
        </g>
        <!--MD5=[1d5e614dd8463a8829c087e6e23322a4]
link a to UC9-->
        <g id="link_a_UC9">
            <path d="M69.85,336.69 C81.44,323.71 95.64,310.25 111,301 C130.76,289.11 154.8,281.26 176.33,276.13 " fill="none" id="a-UC9" style="stroke:#181818;stroke-width:1.0;" />
        </g>
        <!--MD5=[ced53a2e1ee50106e9ee477c87b6a0fe]
link a to UC4-->
        <g id="link_a_UC4">
            <path d="M72.39,370.14 C95.73,365.92 128.23,360.04 157.93,354.67 " fill="none" id="a-UC4" style="stroke:#181818;stroke-width:1.0;" />
        </g>
        <!--MD5=[9a225dd836e694e75e64a328ea686656]
link s to UC1-->
        <g id="link_s_UC1">
            <path d="M53.72,166.93 C66.23,163.29 85.27,157.94 102,154 C124.76,148.64 149.92,143.48 172.08,139.19 " fill="none" id="s-UC1" style="stroke:#181818;stroke-width:1.0;" />
        </g>
        <!--MD5=[ab1c5db9e7ea4db265d3484f4f97f7b8]
link s to UC2-->
        <g id="link_s_UC2">
            <path d="M52.36,210.3 C70.99,269.1 104.77,373.8 111,380 C123.4,392.34 139.61,400.97 156.17,407 " fill="none" id="s-UC2" style="stroke:#181818;stroke-width:1.0;" />
        </g>
        <!--MD5=[46a88b67fe0fb697a9d600a230bce57d]
link a to UC2-->
        <g id="link_a_UC2">
            <path d="M72.39,383.53 C97.46,389.36 133.07,397.64 164.45,404.94 " fill="none" id="a-UC2" style="stroke:#181818;stroke-width:1.0;" />
        </g>
        <!--MD5=[edf70f88007b3901b64f31ed49bfd97b]
link a to UC3-->
        <g id="link_a_UC3">
            <path d="M64.99,415.28 C77.1,431.52 92.95,449.26 111,461 C129.36,472.94 151.84,480.88 172.5,486.12 " fill="none" id="a-UC3" style="stroke:#181818;stroke-width:1.0;" />
        </g>
        <!--MD5=[d8b25096fcbeb02087ad5859d3b192a9]
link s to UC14-->
        <g id="link_s_UC14">
            <path d="M53.56,150.1 C66.29,132.1 86.96,106.77 111,92 C132.11,79.03 158.33,71.09 181.08,66.26 " fill="none" id="s-UC14" style="stroke:#181818;stroke-width:1.0;" />
        </g>
        <!--MD5=[6db5176ff125ae436d96dc8994641ca6]
link a to UC5-->
        <g id="link_a_UC5">
            <path d="M49.9,336.75 C60.03,304.42 78.94,259.69 111,233 C127.58,219.2 149.29,210.84 169.83,205.77 " fill="none" id="a-UC5" style="stroke:#181818;stroke-width:1.0;" />
        </g>
        <!--MD5=[a4bd54dd3866fe9ff11ffd1ad53a712f]
link s to UC5-->
        <g id="link_s_UC5">
            <path d="M53.61,172.9 C77.87,176.28 129.97,183.55 171.9,189.4 " fill="none" id="s-UC5" style="stroke:#181818;stroke-width:1.0;" />
        </g>
        <!--MD5=[f56e13cbbe666032724f9d00648d8760]
link UC10 to b-->
        <g id="link_UC10_b">
            <path d="M566.45,285.11 C578.66,290.89 591.26,298.45 601,308 C720.22,424.9 654.77,524.1 773,642 C796.44,665.37 831.63,680.97 855.76,689.64 " fill="none" id="UC10-b" style="stroke:#181818;stroke-width:1.0;" />
        </g>
        <!--MD5=[08e8bc04e3972ea7529190e08a446c65]
link UC2 to b-->
        <g id="link_UC2_b">
            <path d="M284.19,440.52 C300.09,446.97 317.83,454.22 334,461 C535.4,545.39 776.44,651.24 855.76,686.2 " fill="none" id="UC2-b" style="stroke:#181818;stroke-width:1.0;" />
        </g>
        <!--MD5=[4ea348b84d2834a797e423eada70a1aa]
@startuml
left to right direction
actor Staff as s
actor Approver1 as a
actor Backend as b
actor "Malicious User" as m #red

rectangle "Discount App" {
  usecase "Request Discount" as UC1
  usecase "View Requests/Approvals" as UC2
  usecase "Update Request" as UC3
  usecase "Approve/Reject Request" as UC4
  usecase "Route Request" as UC5
  usecase "Notify Approvers" as UC6
  usecase "Notify Staff" as UC7
  usecase "Register User" as UC9
  usecase "Update Database" as UC10
  usecase "Verify User" as UC11
  usecase "Unauthorized Request" as UC12 #red
  usecase "Unauthorized Approve/Reject" as UC13 #red
  usecase "Login User" as UC14
}

UC1 - -> UC6: includes
UC5 - -> UC6: includes
UC4 - -> UC7: includes
UC14 - -> UC11: includes
UC11 - - -> UC12: prevents
UC11 - - -> UC13: prevents

UC9 - -> UC10

m - UC12
m - UC13
s - UC9
a - UC9
a - - UC4
s - - UC1
s - UC2
a - UC2
a - - UC3
s - - UC14
a - - UC5
s - - UC5

UC10 - - - b
UC2 - - - b


@enduml

PlantUML version 1.2022.5(Sat Apr 30 18:55:52 SGT 2022)
(MIT source distribution)
Java Runtime: Java(TM) SE Runtime Environment
JVM: Java HotSpot(TM) 64-Bit Server VM
Default Encoding: Cp1252
Language: en
Country: US
-->
    </g>
</svg>