<?xml version="1.0" encoding="UTF-8" standalone="no"?><svg xmlns="http://www.w3.org/2000/svg" xmlns:xlink="http://www.w3.org/1999/xlink" contentStyleType="text/css" height="471px" preserveAspectRatio="none" style="width:753px;height:471px;background:#FFFFFF;" version="1.1" viewBox="0 0 753 471" width="753px" zoomAndPan="magnify">
    <defs />
    <g>
        <rect fill="#FFFFFF" height="30.3516" style="stroke:#181818;stroke-width:1.0;" width="10" x="21.5" y="204.3672" />
        <rect fill="#FFFFFF" height="73.7031" style="stroke:#181818;stroke-width:1.0;" width="10" x="350.5" y="100.3125" />
        <rect fill="#FFFFFF" height="30.3516" style="stroke:#181818;stroke-width:1.0;" width="10" x="508.5" y="295.4219" />
        <rect fill="#FFFFFF" height="30.3516" style="stroke:#181818;stroke-width:1.0;" width="10" x="598.5" y="356.125" />
        <line style="stroke:#181818;stroke-width:0.5;stroke-dasharray:5.0,5.0;" x1="26" x2="26" y1="37.6094" y2="434.8281" />
        <line style="stroke:#181818;stroke-width:0.5;stroke-dasharray:5.0,5.0;" x1="254.5" x2="254.5" y1="37.6094" y2="434.8281" />
        <line style="stroke:#181818;stroke-width:0.5;stroke-dasharray:5.0,5.0;" x1="355.5" x2="355.5" y1="37.6094" y2="434.8281" />
        <line style="stroke:#181818;stroke-width:0.5;stroke-dasharray:5.0,5.0;" x1="513.5" x2="513.5" y1="37.6094" y2="434.8281" />
        <line style="stroke:#181818;stroke-width:0.5;stroke-dasharray:5.0,5.0;" x1="603.5" x2="603.5" y1="37.6094" y2="434.8281" />
        <line style="stroke:#181818;stroke-width:0.5;stroke-dasharray:5.0,5.0;" x1="700.5" x2="700.5" y1="37.6094" y2="434.8281" />
        <rect fill="#E2E2F0" height="31.6094" rx="2.5" ry="2.5" style="stroke:#181818;stroke-width:0.5;" width="43" x="5" y="5" /><text fill="#000000" font-family="sans-serif" font-size="14" lengthAdjust="spacing" textLength="29" x="12" y="26.5332">Staff</text>
        <rect fill="#E2E2F0" height="31.6094" rx="2.5" ry="2.5" style="stroke:#181818;stroke-width:0.5;" width="43" x="5" y="433.8281" /><text fill="#000000" font-family="sans-serif" font-size="14" lengthAdjust="spacing" textLength="29" x="12" y="455.3613">Staff</text>
        <rect fill="#E2E2F0" height="31.6094" rx="2.5" ry="2.5" style="stroke:#181818;stroke-width:0.5;" width="82" x="213.5" y="5" /><text fill="#000000" font-family="sans-serif" font-size="14" lengthAdjust="spacing" textLength="68" x="220.5" y="26.5332">Teams Bot</text>
        <rect fill="#E2E2F0" height="31.6094" rx="2.5" ry="2.5" style="stroke:#181818;stroke-width:0.5;" width="82" x="213.5" y="433.8281" /><text fill="#000000" font-family="sans-serif" font-size="14" lengthAdjust="spacing" textLength="68" x="220.5" y="455.3613">Teams Bot</text>
        <rect fill="#E2E2F0" height="31.6094" rx="2.5" ry="2.5" style="stroke:#181818;stroke-width:0.5;" width="74" x="318.5" y="5" /><text fill="#000000" font-family="sans-serif" font-size="14" lengthAdjust="spacing" textLength="60" x="325.5" y="26.5332">Veriforms</text>
        <rect fill="#E2E2F0" height="31.6094" rx="2.5" ry="2.5" style="stroke:#181818;stroke-width:0.5;" width="74" x="318.5" y="433.8281" /><text fill="#000000" font-family="sans-serif" font-size="14" lengthAdjust="spacing" textLength="60" x="325.5" y="455.3613">Veriforms</text>
        <rect fill="#E2E2F0" height="31.6094" rx="2.5" ry="2.5" style="stroke:#181818;stroke-width:0.5;" width="80" x="473.5" y="5" /><text fill="#000000" font-family="sans-serif" font-size="14" lengthAdjust="spacing" textLength="66" x="480.5" y="26.5332">Approver1</text>
        <rect fill="#E2E2F0" height="31.6094" rx="2.5" ry="2.5" style="stroke:#181818;stroke-width:0.5;" width="80" x="473.5" y="433.8281" /><text fill="#000000" font-family="sans-serif" font-size="14" lengthAdjust="spacing" textLength="66" x="480.5" y="455.3613">Approver1</text>
        <rect fill="#E2E2F0" height="31.6094" rx="2.5" ry="2.5" style="stroke:#181818;stroke-width:0.5;" width="80" x="563.5" y="5" /><text fill="#000000" font-family="sans-serif" font-size="14" lengthAdjust="spacing" textLength="66" x="570.5" y="26.5332">Approver2</text>
        <rect fill="#E2E2F0" height="31.6094" rx="2.5" ry="2.5" style="stroke:#181818;stroke-width:0.5;" width="80" x="563.5" y="433.8281" /><text fill="#000000" font-family="sans-serif" font-size="14" lengthAdjust="spacing" textLength="66" x="570.5" y="455.3613">Approver2</text>
        <rect fill="#E2E2F0" height="31.6094" rx="2.5" ry="2.5" style="stroke:#181818;stroke-width:0.5;" width="94" x="653.5" y="5" /><text fill="#000000" font-family="sans-serif" font-size="14" lengthAdjust="spacing" textLength="80" x="660.5" y="26.5332">Organization</text>
        <rect fill="#E2E2F0" height="31.6094" rx="2.5" ry="2.5" style="stroke:#181818;stroke-width:0.5;" width="94" x="653.5" y="433.8281" /><text fill="#000000" font-family="sans-serif" font-size="14" lengthAdjust="spacing" textLength="80" x="660.5" y="455.3613">Organization</text>
        <rect fill="#FFFFFF" height="30.3516" style="stroke:#181818;stroke-width:1.0;" width="10" x="21.5" y="204.3672" />
        <rect fill="#FFFFFF" height="73.7031" style="stroke:#181818;stroke-width:1.0;" width="10" x="350.5" y="100.3125" />
        <rect fill="#FFFFFF" height="30.3516" style="stroke:#181818;stroke-width:1.0;" width="10" x="508.5" y="295.4219" />
        <rect fill="#FFFFFF" height="30.3516" style="stroke:#181818;stroke-width:1.0;" width="10" x="598.5" y="356.125" />
        <polygon fill="#181818" points="242.5,65.9609,252.5,69.9609,242.5,73.9609,246.5,69.9609" style="stroke:#181818;stroke-width:1.0;" />
        <line style="stroke:#181818;stroke-width:1.0;" x1="26.5" x2="248.5" y1="69.9609" y2="69.9609" /><text fill="#000000" font-family="sans-serif" font-size="13" lengthAdjust="spacing" textLength="121" x="33.5" y="65.1045">Request for Discount</text>
        <polygon fill="#181818" points="338.5,96.3125,348.5,100.3125,338.5,104.3125,342.5,100.3125" style="stroke:#181818;stroke-width:1.0;" />
        <line style="stroke:#181818;stroke-width:1.0;" x1="254.5" x2="344.5" y1="100.3125" y2="100.3125" /><text fill="#000000" font-family="sans-serif" font-size="13" lengthAdjust="spacing" textLength="77" x="261.5" y="95.4561">Request form</text>
        <line style="stroke:#181818;stroke-width:1.0;" x1="360.5" x2="402.5" y1="130.6641" y2="130.6641" />
        <line style="stroke:#181818;stroke-width:1.0;" x1="402.5" x2="402.5" y1="130.6641" y2="143.6641" />
        <line style="stroke:#181818;stroke-width:1.0;" x1="361.5" x2="402.5" y1="143.6641" y2="143.6641" />
        <polygon fill="#181818" points="371.5,139.6641,361.5,143.6641,371.5,147.6641,367.5,143.6641" style="stroke:#181818;stroke-width:1.0;" /><text fill="#000000" font-family="sans-serif" font-size="13" lengthAdjust="spacing" textLength="87" x="367.5" y="125.8076">Generate Form</text>
        <polygon fill="#181818" points="265.5,170.0156,255.5,174.0156,265.5,178.0156,261.5,174.0156" style="stroke:#181818;stroke-width:1.0;" />
        <line style="stroke:#181818;stroke-width:1.0;stroke-dasharray:2.0,2.0;" x1="259.5" x2="354.5" y1="174.0156" y2="174.0156" /><text fill="#000000" font-family="sans-serif" font-size="13" lengthAdjust="spacing" textLength="72" x="271.5" y="169.1592">Return Form</text>
        <polygon fill="#181818" points="42.5,200.3672,32.5,204.3672,42.5,208.3672,38.5,204.3672" style="stroke:#181818;stroke-width:1.0;" />
        <line style="stroke:#181818;stroke-width:1.0;" x1="36.5" x2="253.5" y1="204.3672" y2="204.3672" /><text fill="#000000" font-family="sans-serif" font-size="13" lengthAdjust="spacing" textLength="117" x="48.5" y="199.5107">Return Form to Staff</text>
        <polygon fill="#181818" points="242.5,230.7188,252.5,234.7188,242.5,238.7188,246.5,234.7188" style="stroke:#181818;stroke-width:1.0;" />
        <line style="stroke:#181818;stroke-width:1.0;stroke-dasharray:2.0,2.0;" x1="26.5" x2="248.5" y1="234.7188" y2="234.7188" /><text fill="#000000" font-family="sans-serif" font-size="13" lengthAdjust="spacing" textLength="199" x="33.5" y="229.8623">Fill up Form and Send for Approval</text>
        <line style="stroke:#181818;stroke-width:1.0;" x1="698.5" x2="688.5" y1="265.0703" y2="261.0703" />
        <line style="stroke:#181818;stroke-width:1.0;" x1="698.5" x2="688.5" y1="265.0703" y2="269.0703" />
        <line style="stroke:#181818;stroke-width:1.0;" x1="254.5" x2="699.5" y1="265.0703" y2="265.0703" /><text fill="#000000" font-family="sans-serif" font-size="13" lengthAdjust="spacing" textLength="116" x="261.5" y="260.2139">Notify about request</text>
        <polygon fill="#181818" points="496.5,291.4219,506.5,295.4219,496.5,299.4219,500.5,295.4219" style="stroke:#181818;stroke-width:1.0;" />
        <line style="stroke:#181818;stroke-width:1.0;" x1="254.5" x2="502.5" y1="295.4219" y2="295.4219" /><text fill="#000000" font-family="sans-serif" font-size="13" lengthAdjust="spacing" textLength="126" x="261.5" y="290.5654">Notify and Send Form</text>
        <polygon fill="#181818" points="265.5,321.7734,255.5,325.7734,265.5,329.7734,261.5,325.7734" style="stroke:#181818;stroke-width:1.0;" />
        <line style="stroke:#181818;stroke-width:1.0;stroke-dasharray:2.0,2.0;" x1="259.5" x2="512.5" y1="325.7734" y2="325.7734" /><text fill="#000000" font-family="sans-serif" font-size="13" lengthAdjust="spacing" textLength="230" x="271.5" y="320.917">Fill up Form and Route to next Approver</text>
        <polygon fill="#181818" points="586.5,352.125,596.5,356.125,586.5,360.125,590.5,356.125" style="stroke:#181818;stroke-width:1.0;" />
        <line style="stroke:#181818;stroke-width:1.0;" x1="254.5" x2="592.5" y1="356.125" y2="356.125" /><text fill="#000000" font-family="sans-serif" font-size="13" lengthAdjust="spacing" textLength="126" x="261.5" y="351.2686">Notify and Send Form</text>
        <polygon fill="#181818" points="265.5,382.4766,255.5,386.4766,265.5,390.4766,261.5,386.4766" style="stroke:#181818;stroke-width:1.0;" />
        <line style="stroke:#181818;stroke-width:1.0;stroke-dasharray:2.0,2.0;" x1="259.5" x2="602.5" y1="386.4766" y2="386.4766" /><text fill="#000000" font-family="sans-serif" font-size="13" lengthAdjust="spacing" textLength="185" x="271.5" y="381.6201">Fill up Form and Approve/Reject</text>
        <line style="stroke:#181818;stroke-width:1.0;" x1="26.5" x2="36.5" y1="416.8281" y2="412.8281" />
        <line style="stroke:#181818;stroke-width:1.0;" x1="26.5" x2="36.5" y1="416.8281" y2="420.8281" />
        <line style="stroke:#181818;stroke-width:1.0;" x1="26.5" x2="253.5" y1="416.8281" y2="416.8281" /><text fill="#000000" font-family="sans-serif" font-size="13" lengthAdjust="spacing" textLength="87" x="43.5" y="411.9717">Notify outcome</text>
        <!--MD5=[0a3fa85c910105a78e4aefecde01316b]
@startuml
participant Staff as staff
participant "Teams Bot" as bot
participant Veriforms
participant Approver1
participant Approver2

participant Organization as organization

staff -> bot: Request for Discount
bot -> Veriforms: Request form
activate Veriforms
Veriforms -> Veriforms: Generate Form
return Return Form
bot-> staff: Return Form to Staff
activate staff
return Fill up Form and Send for Approval
bot ->> organization: Notify about request
bot -> Approver1: Notify and Send Form
activate Approver1
return Fill up Form and Route to next Approver
bot -> Approver2: Notify and Send Form
activate Approver2
return Fill up Form and Approve/Reject
bot ->> staff: Notify outcome

@enduml

PlantUML version 1.2022.5(Sat Apr 30 18:55:52 SGT 2022)
(MIT source distribution)
Java Runtime: Java(TM) SE Runtime Environment
JVM: Java HotSpot(TM) 64-Bit Server VM
Default Encoding: Cp1252
Language: en
Country: US
-->
    </g>
</svg>