<?xml version="1.0" encoding="UTF-8" standalone="no"?><svg xmlns="http://www.w3.org/2000/svg" xmlns:xlink="http://www.w3.org/1999/xlink" contentStyleType="text/css" height="708px" preserveAspectRatio="none" style="width:1518px;height:708px;background:#FFFFFF;" version="1.1" viewBox="0 0 1518 708" width="1518px" zoomAndPan="magnify">
    <defs />
    <g>
        <!--MD5=[2bc226f05bcccf3e95a8e27b186c617c]
cluster Discount App-->
        <g id="cluster_Discount App">
            <rect height="302" rx="2.5" ry="2.5" style="stroke:#181818;stroke-width:1.0;fill:none;" width="1401" x="111" y="99.5" /><text fill="#000000" font-family="sans-serif" font-size="14" font-weight="bold" lengthAdjust="spacing" textLength="93" x="765" y="116.0332">Discount App</text>
        </g>
        <g id="elem_UC1">
            <ellipse cx="1137.0785" cy="298.7157" fill="#F1F1F1" rx="79.0785" ry="18.2157" style="stroke:#181818;stroke-width:0.5;" /><text fill="#000000" font-family="sans-serif" font-size="14" lengthAdjust="spacing" textLength="112" x="1079.6751" y="302.8395">Request Discount</text>
        </g>
        <g id="elem_UC2">
            <ellipse cx="226.613" cy="296.3226" fill="#F1F1F1" rx="99.613" ry="22.3226" style="stroke:#181818;stroke-width:0.5;" /><text fill="#000000" font-family="sans-serif" font-size="14" lengthAdjust="spacing" textLength="160" x="146.613" y="300.0511">View Requests/Approvals</text>
        </g>
        <g id="elem_UC3">
            <ellipse cx="226.7256" cy="153.4451" fill="#F1F1F1" rx="75.2256" ry="17.4451" style="stroke:#181818;stroke-width:0.5;" /><text fill="#000000" font-family="sans-serif" font-size="14" lengthAdjust="spacing" textLength="102" x="172.7256" y="157.9617">Update Request</text>
        </g>
        <g id="elem_UC4">
            <ellipse cx="1136.9525" cy="190.2905" fill="#F1F1F1" rx="96.9525" ry="21.7905" style="stroke:#181818;stroke-width:0.5;" /><text fill="#000000" font-family="sans-serif" font-size="14" lengthAdjust="spacing" textLength="154" x="1059.9525" y="194.019">Approve/Reject Request</text>
        </g>
        <g id="elem_UC5">
            <ellipse cx="1137.1476" cy="368.4295" fill="#F1F1F1" rx="72.6476" ry="16.9295" style="stroke:#181818;stroke-width:0.5;" /><text fill="#000000" font-family="sans-serif" font-size="14" lengthAdjust="spacing" textLength="95" x="1086.6476" y="372.9461">Route Request</text>
        </g>
        <g id="elem_UC6">
            <ellipse cx="1419.9763" cy="321.5953" fill="#F1F1F1" rx="75.9763" ry="17.5953" style="stroke:#181818;stroke-width:0.5;" /><text fill="#000000" font-family="sans-serif" font-size="14" lengthAdjust="spacing" textLength="104" x="1365.0467" y="326.0957">Notify Approvers</text>
        </g>
        <g id="elem_UC7">
            <ellipse cx="1420.1685" cy="190.5838" fill="#F1F1F1" rx="60.1685" ry="15.5838" style="stroke:#181818;stroke-width:0.5;" /><text fill="#000000" font-family="sans-serif" font-size="14" lengthAdjust="spacing" textLength="68" x="1383.1685" y="195.1004">Notify Staff</text>
        </g>
        <g id="elem_UC9">
            <ellipse cx="226.457" cy="222.2914" fill="#F1F1F1" rx="69.457" ry="16.2914" style="stroke:#181818;stroke-width:0.5;" /><text fill="#000000" font-family="sans-serif" font-size="14" lengthAdjust="spacing" textLength="86" x="180.457" y="226.808">Register User</text>
        </g>
        <g id="elem_UC10">
            <ellipse cx="514.2877" cy="208.5575" fill="#F1F1F1" rx="78.2877" ry="18.0575" style="stroke:#181818;stroke-width:0.5;" /><text fill="#000000" font-family="sans-serif" font-size="14" lengthAdjust="spacing" textLength="110" x="457.5149" y="212.7774">Update Database</text>
        </g>
        <g id="elem_UC11">
            <ellipse cx="514.4074" cy="350.5891" fill="#F1F1F1" rx="60.9074" ry="15.5891" style="stroke:#181818;stroke-width:0.5;" /><text fill="#000000" font-family="sans-serif" font-size="14" lengthAdjust="spacing" textLength="69" x="476.9074" y="355.1057">Verify User</text>
        </g>
        <g id="elem_UC12">
            <ellipse cx="813.3297" cy="361.5659" fill="#FF0000" rx="90.8297" ry="20.5659" style="stroke:#181818;stroke-width:0.5;" /><text fill="#000000" font-family="sans-serif" font-size="14" lengthAdjust="spacing" textLength="140" x="743.3297" y="365.2945">Unauthorized Request</text>
        </g>
        <g id="elem_UC13">
            <ellipse cx="813.434" cy="281.4868" fill="#FF0000" rx="110.434" ry="24.4868" style="stroke:#181818;stroke-width:0.5;" /><text fill="#000000" font-family="sans-serif" font-size="14" lengthAdjust="spacing" textLength="184" x="721.434" y="285.2153">Unauthorized Approve/Reject</text>
        </g>
        <g id="elem_UC14">
            <ellipse cx="226.6685" cy="369.5838" fill="#F1F1F1" rx="60.1685" ry="15.5838" style="stroke:#181818;stroke-width:0.5;" /><text fill="#000000" font-family="sans-serif" font-size="14" lengthAdjust="spacing" textLength="68" x="189.6685" y="374.1004">Login User</text>
        </g>
        <!--MD5=[d8322213e5f4465576b8bf70cd9bce59]
entity s-->
        <g id="elem_s">
            <ellipse cx="35" cy="548" fill="#F1F1F1" rx="8" ry="8" style="stroke:#181818;stroke-width:0.5;" />
            <path d="M35,556 L35,583 M22,564 L48,564 M35,583 L22,598 M35,583 L48,598 " fill="none" style="stroke:#181818;stroke-width:0.5;" /><text fill="#000000" font-family="sans-serif" font-size="14" lengthAdjust="spacing" textLength="29" x="20.5" y="614.0332">Staff</text>
        </g>
        <!--MD5=[f83ae91a690dfc657e1c5fbbd818f13d]
entity a-->
        <g id="elem_a">
            <ellipse cx="35" cy="192" fill="#F1F1F1" rx="8" ry="8" style="stroke:#181818;stroke-width:0.5;" />
            <path d="M35,200 L35,227 M22,208 L48,208 M35,227 L22,242 M35,227 L48,242 " fill="none" style="stroke:#181818;stroke-width:0.5;" /><text fill="#000000" font-family="sans-serif" font-size="14" lengthAdjust="spacing" textLength="58" x="6" y="258.0332">Approver</text>
        </g>
        <!--MD5=[5d12e840fb55afd9ed7b3559a638e8f7]
entity b-->
        <g id="elem_b">
            <ellipse cx="1137" cy="14" fill="#F1F1F1" rx="8" ry="8" style="stroke:#181818;stroke-width:0.5;" />
            <path d="M1137,22 L1137,49 M1124,30 L1150,30 M1137,49 L1124,64 M1137,49 L1150,64 " fill="none" style="stroke:#181818;stroke-width:0.5;" /><text fill="#000000" font-family="sans-serif" font-size="14" lengthAdjust="spacing" textLength="55" x="1109.5" y="80.0332">Backend</text>
        </g>
        <!--MD5=[c617d1e94391e02d80a02faf38d11fae]
entity m-->
        <g id="elem_m">
            <ellipse cx="813.5" cy="426" fill="#FF0000" rx="8" ry="8" style="stroke:#181818;stroke-width:0.5;" />
            <path d="M813.5,434 L813.5,461 M800.5,442 L826.5,442 M813.5,461 L800.5,476 M813.5,461 L826.5,476 " fill="none" style="stroke:#181818;stroke-width:0.5;" /><text fill="#000000" font-family="sans-serif" font-size="14" lengthAdjust="spacing" textLength="91" x="768" y="492.0332">Malicious User</text>
        </g>
        <!--MD5=[aa9d2cfd37f9b85e856ad6a1e4475780]
link UC1 to UC6-->
        <g id="link_UC1_UC6">
            <path d="M1211.46,304.51 C1251.77,307.81 1301.69,311.9 1342.47,315.24 " fill="none" id="UC1-to-UC6" style="stroke:#181818;stroke-width:1.0;" />
            <polygon fill="#181818" points="1347.91,315.68,1339.2721,310.9485,1342.9272,315.266,1338.6097,318.921,1347.91,315.68" style="stroke:#181818;stroke-width:1.0;" /><text fill="#000000" font-family="sans-serif" font-size="13" lengthAdjust="spacing" textLength="48" x="1265" y="305.9951">includes</text>
        </g>
        <!--MD5=[3ab3c4f0aa88f122bda36575115a204e]
link UC5 to UC6-->
        <g id="link_UC5_UC6">
            <path d="M1197.08,358.86 C1231.25,353.26 1275.06,346.04 1314,339.5 C1326.8,337.35 1340.47,335.02 1353.58,332.78 " fill="none" id="UC5-to-UC6" style="stroke:#181818;stroke-width:1.0;" />
            <polygon fill="#181818" points="1358.77,331.89,1349.2245,329.4643,1353.8415,332.7328,1350.5731,337.3499,1358.77,331.89" style="stroke:#181818;stroke-width:1.0;" /><text fill="#000000" font-family="sans-serif" font-size="13" lengthAdjust="spacing" textLength="48" x="1265" y="335.9951">includes</text>
        </g>
        <!--MD5=[5de79bcd4d0d9c382e7637adece796ee]
link UC4 to UC7-->
        <g id="link_UC4_UC7">
            <path d="M1234.31,190.5 C1273.99,190.5 1318.89,190.5 1354.49,190.5 " fill="none" id="UC4-to-UC7" style="stroke:#181818;stroke-width:1.0;" />
            <polygon fill="#181818" points="1359.67,190.5,1350.67,186.5,1354.67,190.5,1350.67,194.5,1359.67,190.5" style="stroke:#181818;stroke-width:1.0;" /><text fill="#000000" font-family="sans-serif" font-size="13" lengthAdjust="spacing" textLength="48" x="1265" y="186.9951">includes</text>
        </g>
        <!--MD5=[901165f40959f6aff952005c627ca22d]
link UC14 to UC11-->
        <g id="link_UC14_UC11">
            <path d="M284.69,365.7 C332.44,362.53 400.45,358.01 449.91,354.72 " fill="none" id="UC14-to-UC11" style="stroke:#181818;stroke-width:1.0;" />
            <polygon fill="#181818" points="454.94,354.39,445.6964,350.9905,449.9508,354.7188,446.2225,358.9732,454.94,354.39" style="stroke:#181818;stroke-width:1.0;" /><text fill="#000000" font-family="sans-serif" font-size="13" lengthAdjust="spacing" textLength="48" x="357" y="354.9951">includes</text>
        </g>
        <!--MD5=[09d7d8cb12d9fa4251882f1ab45300ac]
link UC11 to UC12-->
        <g id="link_UC11_UC12">
            <path d="M574.89,352.7 C615.97,354.22 671.48,356.28 718.52,358.02 " fill="none" id="UC11-to-UC12" style="stroke:#181818;stroke-width:1.0;" />
            <polygon fill="#181818" points="723.63,358.21,714.7847,353.8787,718.6334,358.0244,714.4877,361.8732,723.63,358.21" style="stroke:#181818;stroke-width:1.0;" /><text fill="#000000" font-family="sans-serif" font-size="13" lengthAdjust="spacing" textLength="48" x="624" y="351.9951">prevents</text>
        </g>
        <!--MD5=[ba66c1e12e800784ecc5435f6c36de73]
link UC11 to UC13-->
        <g id="link_UC11_UC13">
            <path d="M560.29,340.09 C605.51,329.59 676.37,313.13 731.48,300.32 " fill="none" id="UC11-to-UC13" style="stroke:#181818;stroke-width:1.0;" />
            <polygon fill="#181818" points="736.42,299.17,726.7494,297.3045,731.549,300.2985,728.555,305.098,736.42,299.17" style="stroke:#181818;stroke-width:1.0;" /><text fill="#000000" font-family="sans-serif" font-size="13" lengthAdjust="spacing" textLength="48" x="624" y="310.9951">prevents</text>
        </g>
        <!--MD5=[80170e22d2174e345eea3df141057c21]
link UC13 to UC4-->
        <g id="link_UC13_UC4">
            <path d="M910.6,269.74 C942.63,264.51 978.23,257.28 1010,247.5 C1038.72,238.66 1069.47,224.84 1093.41,213.02 " fill="none" id="UC13-to-UC4" style="stroke:#181818;stroke-width:1.0;" />
            <polygon fill="#181818" points="1098.1,210.69,1088.2597,211.0994,1093.6193,212.9089,1091.8099,218.2685,1098.1,210.69" style="stroke:#181818;stroke-width:1.0;" /><text fill="#000000" font-family="sans-serif" font-size="13" lengthAdjust="spacing" textLength="54" x="955" y="243.9951">threatens</text>
        </g>
        <!--MD5=[31e9e3723efb5d57e4fd7ca50f9c3ea6]
link UC12 to UC1-->
        <g id="link_UC12_UC1">
            <path d="M884.22,348.59 C921.56,341.61 968.32,332.74 1010,324.5 C1030.6,320.42 1053.07,315.83 1073.25,311.66 " fill="none" id="UC12-to-UC1" style="stroke:#181818;stroke-width:1.0;" />
            <polygon fill="#181818" points="1078.33,310.61,1068.7048,308.5229,1073.4344,311.6263,1070.331,316.3559,1078.33,310.61" style="stroke:#181818;stroke-width:1.0;" /><text fill="#000000" font-family="sans-serif" font-size="13" lengthAdjust="spacing" textLength="54" x="955" y="320.9951">threatens</text>
        </g>
        <!--MD5=[766679404c4c999e4cf4dcfe94687ae6]
link UC9 to UC10-->
        <g id="link_UC9_UC10">
            <path d="M294.92,219.2 C336.02,217.19 388.81,214.6 432.22,212.48 " fill="none" id="UC9-to-UC10" style="stroke:#181818;stroke-width:1.0;" />
            <polygon fill="#181818" points="437.46,212.22,428.276,208.6626,432.4659,212.4633,428.6653,216.6531,437.46,212.22" style="stroke:#181818;stroke-width:1.0;" />
        </g>
        <!--MD5=[8a4b5f0fd3939fac8f36ece58abd065a]
link m to UC12-->
        <g id="link_m_UC12">
            <path d="M813.5,417.16 C813.5,405.57 813.5,393.97 813.5,382.37 " fill="none" id="m-UC12" style="stroke:#181818;stroke-width:1.0;" />
        </g>
        <!--MD5=[3e14623d7d2c0b2e0504b0e727a19ef9]
link m to UC13-->
        <g id="link_m_UC13">
            <path d="M767.8,445.36 C707.21,428.33 611.93,392.3 648,341 C664.68,317.27 691.78,302.96 719.25,294.34 " fill="none" id="m-UC13" style="stroke:#181818;stroke-width:1.0;" />
        </g>
        <!--MD5=[0c1f5b2aba23facd9e2aeb333553c598]
link s to UC9-->
        <g id="link_s_UC9">
            <path d="M39.12,539.29 C45.99,462.69 64.95,297.14 103,256.5 C117.78,240.71 139.2,232.03 160.01,227.32 " fill="none" id="s-UC9" style="stroke:#181818;stroke-width:1.0;" />
        </g>
        <!--MD5=[1d5e614dd8463a8829c087e6e23322a4]
link a to UC9-->
        <g id="link_a_UC9">
            <path d="M64.37,222.5 C88.74,222.5 124.88,222.5 156.76,222.5 " fill="none" id="a-UC9" style="stroke:#181818;stroke-width:1.0;" />
        </g>
        <!--MD5=[ced53a2e1ee50106e9ee477c87b6a0fe]
link a to UC4-->
        <g id="link_a_UC4">
            <path d="M54.37,183.29 C65.92,161.96 82.52,136.35 103,118.5 C148.26,79.04 165.45,61.5 225.5,61.5 C225.5,61.5 225.5,61.5 814.5,61.5 C929.07,61.5 1051.16,132.93 1106.13,169.49 " fill="none" id="a-UC4" style="stroke:#181818;stroke-width:1.0;" />
        </g>
        <!--MD5=[9a225dd836e694e75e64a328ea686656]
link s to UC1-->
        <g id="link_s_UC1">
            <path d="M49.57,583.53 C80.39,594.47 158.18,619.5 225.5,619.5 C225.5,619.5 225.5,619.5 814.5,619.5 C976.37,619.5 913.52,434.52 1040,333.5 C1052.06,323.87 1067.01,316.74 1081.49,311.53 " fill="none" id="s-UC1" style="stroke:#181818;stroke-width:1.0;" />
        </g>
        <!--MD5=[ab1c5db9e7ea4db265d3484f4f97f7b8]
link s to UC2-->
        <g id="link_s_UC2">
            <path d="M49.69,568.71 C63.93,557.63 85.46,538.15 95,515.5 C102.73,497.15 90.95,352.35 103,336.5 C112.88,323.5 127.09,314.66 142.35,308.66 " fill="none" id="s-UC2" style="stroke:#181818;stroke-width:1.0;" />
        </g>
        <!--MD5=[46a88b67fe0fb697a9d600a230bce57d]
link a to UC2-->
        <g id="link_a_UC2">
            <path d="M64.24,238.05 C76.03,244.22 89.98,251.11 103,256.5 C122.84,264.72 145.03,272.4 165.01,278.79 " fill="none" id="a-UC2" style="stroke:#181818;stroke-width:1.0;" />
        </g>
        <!--MD5=[edf70f88007b3901b64f31ed49bfd97b]
link a to UC3-->
        <g id="link_a_UC3">
            <path d="M64.14,206.71 C75.91,200.5 89.89,193.65 103,188.5 C125.65,179.61 151.45,171.9 173.52,165.99 " fill="none" id="a-UC3" style="stroke:#181818;stroke-width:1.0;" />
        </g>
        <!--MD5=[d8b25096fcbeb02087ad5859d3b192a9]
link s to UC14-->
        <g id="link_s_UC14">
            <path d="M49.8,575.83 C62.56,572.83 81.52,566.94 95,556.5 C157.9,507.76 202.48,420.28 218.73,384.94 " fill="none" id="s-UC14" style="stroke:#181818;stroke-width:1.0;" />
        </g>
        <!--MD5=[6db5176ff125ae436d96dc8994641ca6]
link a to UC5-->
        <g id="link_a_UC5">
            <path d="M39.46,261.52 C45.31,302.96 61,367.22 103,402.5 C310.65,576.94 432.94,488.73 703,513.5 C800.81,522.47 830.16,542.52 924,513.5 C1006.86,487.87 1086.19,417.49 1119.52,385.15 " fill="none" id="a-UC5" style="stroke:#181818;stroke-width:1.0;" />
        </g>
        <!--MD5=[a4bd54dd3866fe9ff11ffd1ad53a712f]
link s to UC5-->
        <g id="link_s_UC5">
            <path d="M49.71,599.57 C60.25,614.27 76.02,633.37 94,645.5 C145.21,680.05 163.73,690.5 225.5,690.5 C225.5,690.5 225.5,690.5 814.5,690.5 C903.66,690.5 940.96,701.91 1010,645.5 C1095.71,575.47 1125.52,434.55 1133.52,385.66 " fill="none" id="s-UC5" style="stroke:#181818;stroke-width:1.0;" />
        </g>
        <!--MD5=[f56e13cbbe666032724f9d00648d8760]
link UC10 to b-->
        <g id="link_UC10_b">
            <path d="M582.41,217.66 C682.32,227.99 873.35,234.57 1010,158.5 C1029.11,147.86 1024.59,135.02 1040,119.5 C1061.45,97.88 1089.15,76.85 1109.27,62.59 " fill="none" id="UC10-b" style="stroke:#181818;stroke-width:1.0;" />
        </g>
        <!--MD5=[08e8bc04e3972ea7529190e08a446c65]
link UC2 to b-->
        <g id="link_UC2_b">
            <path d="M281.37,277.63 C296.21,271.63 312.06,264.46 326,256.5 C379.41,225.99 379.75,197.39 436,172.5 C681.17,64.04 1013.66,47.48 1109.28,44.95 " fill="none" id="UC2-b" style="stroke:#181818;stroke-width:1.0;" />
        </g>
        <!--MD5=[14d1fd80572a38323a484f296122163d]
@startuml
left to right direction
actor Staff as s
actor Approver as a
actor Backend as b
actor "Malicious User" as m #red

rectangle "Discount App" {
  usecase "Request Discount" as UC1
  usecase "View Requests/Approvals" as UC2
  usecase "Update Request" as UC3
  usecase "Approve/Reject Request" as UC4
  usecase "Route Request" as UC5
  usecase "Notify Approvers" as UC6
  usecase "Notify Staff" as UC7
  usecase "Register User" as UC9
  usecase "Update Database" as UC10
  usecase "Verify User" as UC11
  usecase "Unauthorized Request" as UC12 #red
  usecase "Unauthorized Approve/Reject" as UC13 #red
  usecase "Login User" as UC14
}

UC1 - -> UC6: includes
UC5 - -> UC6: includes
UC4 - -> UC7: includes
UC14 - -> UC11: includes
UC11 - -> UC12: prevents
UC11 - -> UC13: prevents
UC13 - -> UC4: threatens
UC12 - -> UC1: threatens

UC9 - -> UC10

m - UC12
m - UC13
s - UC9
a - UC9
a - - UC4
s - - UC1
s - UC2
a - UC2
a - - UC3
s - - UC14
a - - UC5
s - - UC5

UC10 - - - b
UC2 - - - b


@enduml

PlantUML version 1.2022.5(Sat Apr 30 18:55:52 SGT 2022)
(MIT source distribution)
Java Runtime: Java(TM) SE Runtime Environment
JVM: Java HotSpot(TM) 64-Bit Server VM
Default Encoding: Cp1252
Language: en
Country: US
-->
    </g>
</svg>