<?xml version="1.0" encoding="UTF-8" standalone="no"?><svg xmlns="http://www.w3.org/2000/svg" xmlns:xlink="http://www.w3.org/1999/xlink" contentStyleType="text/css" height="742px" preserveAspectRatio="none" style="width:1008px;height:742px;background:#FFFFFF;" version="1.1" viewBox="0 0 1008 742" width="1008px" zoomAndPan="magnify">
    <defs />
    <g>
        <!--MD5=[2bc226f05bcccf3e95a8e27b186c617c]
cluster Discount App-->
        <g id="cluster_Discount App">
            <rect height="523" rx="2.5" ry="2.5" style="stroke:#181818;stroke-width:1.0;fill:none;" width="891" x="111" y="7" /><text fill="#000000" font-family="sans-serif" font-size="14" font-weight="bold" lengthAdjust="spacing" textLength="93" x="510" y="23.5332">Discount App</text>
        </g>
        <g id="elem_UC1">
            <ellipse cx="226.5785" cy="128.2157" fill="#F1F1F1" rx="79.0785" ry="18.2157" style="stroke:#181818;stroke-width:0.5;" /><text fill="#000000" font-family="sans-serif" font-size="14" lengthAdjust="spacing" textLength="112" x="169.1751" y="132.3395">Request Discount</text>
        </g>
        <g id="elem_UC2">
            <ellipse cx="226.613" cy="420.8226" fill="#F1F1F1" rx="99.613" ry="22.3226" style="stroke:#181818;stroke-width:0.5;" /><text fill="#000000" font-family="sans-serif" font-size="14" lengthAdjust="spacing" textLength="160" x="146.613" y="424.5511">View Requests/Approvals</text>
        </g>
        <g id="elem_UC3">
            <ellipse cx="226.7256" cy="495.9451" fill="#F1F1F1" rx="75.2256" ry="17.4451" style="stroke:#181818;stroke-width:0.5;" /><text fill="#000000" font-family="sans-serif" font-size="14" lengthAdjust="spacing" textLength="102" x="172.7256" y="500.4617">Update Request</text>
        </g>
        <g id="elem_UC4">
            <ellipse cx="226.4525" cy="340.7905" fill="#F1F1F1" rx="96.9525" ry="21.7905" style="stroke:#181818;stroke-width:0.5;" /><text fill="#000000" font-family="sans-serif" font-size="14" lengthAdjust="spacing" textLength="154" x="149.4525" y="344.519">Approve/Reject Request</text>
        </g>
        <g id="elem_UC5">
            <ellipse cx="226.6476" cy="197.9295" fill="#F1F1F1" rx="72.6476" ry="16.9295" style="stroke:#181818;stroke-width:0.5;" /><text fill="#000000" font-family="sans-serif" font-size="14" lengthAdjust="spacing" textLength="95" x="176.1476" y="202.4461">Route Request</text>
        </g>
        <g id="elem_UC6">
            <ellipse cx="514.4763" cy="198.0953" fill="#F1F1F1" rx="75.9763" ry="17.5953" style="stroke:#181818;stroke-width:0.5;" /><text fill="#000000" font-family="sans-serif" font-size="14" lengthAdjust="spacing" textLength="104" x="459.5467" y="202.5957">Notify Approvers</text>
        </g>
        <g id="elem_UC7">
            <ellipse cx="514.6685" cy="341.0838" fill="#F1F1F1" rx="60.1685" ry="15.5838" style="stroke:#181818;stroke-width:0.5;" /><text fill="#000000" font-family="sans-serif" font-size="14" lengthAdjust="spacing" textLength="68" x="477.6685" y="345.6004">Notify Staff</text>
        </g>
        <g id="elem_UC9">
            <ellipse cx="226.457" cy="266.7914" fill="#F1F1F1" rx="69.457" ry="16.2914" style="stroke:#181818;stroke-width:0.5;" /><text fill="#000000" font-family="sans-serif" font-size="14" lengthAdjust="spacing" textLength="86" x="180.457" y="271.308">Register User</text>
        </g>
        <g id="elem_UC10">
            <ellipse cx="514.2877" cy="270.0575" fill="#F1F1F1" rx="78.2877" ry="18.0575" style="stroke:#181818;stroke-width:0.5;" /><text fill="#000000" font-family="sans-serif" font-size="14" lengthAdjust="spacing" textLength="110" x="457.5149" y="274.2774">Update Database</text>
        </g>
        <g id="elem_UC11">
            <ellipse cx="514.4074" cy="130.0891" fill="#F1F1F1" rx="60.9074" ry="15.5891" style="stroke:#181818;stroke-width:0.5;" /><text fill="#000000" font-family="sans-serif" font-size="14" lengthAdjust="spacing" textLength="69" x="476.9074" y="134.6057">Verify User</text>
        </g>
        <g id="elem_UC12">
            <ellipse cx="875.3297" cy="354.0659" fill="#FF0000" rx="90.8297" ry="20.5659" style="stroke:#181818;stroke-width:0.5;" /><text fill="#000000" font-family="sans-serif" font-size="14" lengthAdjust="spacing" textLength="140" x="805.3297" y="357.7945">Unauthorized Request</text>
        </g>
        <g id="elem_UC13">
            <ellipse cx="875.434" cy="234.9868" fill="#FF0000" rx="110.434" ry="24.4868" style="stroke:#181818;stroke-width:0.5;" /><text fill="#000000" font-family="sans-serif" font-size="14" lengthAdjust="spacing" textLength="184" x="783.434" y="238.7153">Unauthorized Approve/Reject</text>
        </g>
        <g id="elem_UC14">
            <ellipse cx="226.6685" cy="59.0838" fill="#F1F1F1" rx="60.1685" ry="15.5838" style="stroke:#181818;stroke-width:0.5;" /><text fill="#000000" font-family="sans-serif" font-size="14" lengthAdjust="spacing" textLength="68" x="189.6685" y="63.6004">Login User</text>
        </g>
        <!--MD5=[d8322213e5f4465576b8bf70cd9bce59]
entity s-->
        <g id="elem_s">
            <ellipse cx="35" cy="140.5" fill="#F1F1F1" rx="8" ry="8" style="stroke:#181818;stroke-width:0.5;" />
            <path d="M35,148.5 L35,175.5 M22,156.5 L48,156.5 M35,175.5 L22,190.5 M35,175.5 L48,190.5 " fill="none" style="stroke:#181818;stroke-width:0.5;" /><text fill="#000000" font-family="sans-serif" font-size="14" lengthAdjust="spacing" textLength="29" x="20.5" y="206.5332">Staff</text>
        </g>
        <!--MD5=[f83ae91a690dfc657e1c5fbbd818f13d]
entity a-->
        <g id="elem_a">
            <ellipse cx="35" cy="345.5" fill="#F1F1F1" rx="8" ry="8" style="stroke:#181818;stroke-width:0.5;" />
            <path d="M35,353.5 L35,380.5 M22,361.5 L48,361.5 M35,380.5 L22,395.5 M35,380.5 L48,395.5 " fill="none" style="stroke:#181818;stroke-width:0.5;" /><text fill="#000000" font-family="sans-serif" font-size="14" lengthAdjust="spacing" textLength="58" x="6" y="411.5332">Approver</text>
        </g>
        <!--MD5=[5d12e840fb55afd9ed7b3559a638e8f7]
entity b-->
        <g id="elem_b">
            <ellipse cx="875.5" cy="667.5" fill="#F1F1F1" rx="8" ry="8" style="stroke:#181818;stroke-width:0.5;" />
            <path d="M875.5,675.5 L875.5,702.5 M862.5,683.5 L888.5,683.5 M875.5,702.5 L862.5,717.5 M875.5,702.5 L888.5,717.5 " fill="none" style="stroke:#181818;stroke-width:0.5;" /><text fill="#000000" font-family="sans-serif" font-size="14" lengthAdjust="spacing" textLength="55" x="848" y="733.5332">Backend</text>
        </g>
        <!--MD5=[c617d1e94391e02d80a02faf38d11fae]
entity m-->
        <g id="elem_m">
            <ellipse cx="875.5" cy="554.5" fill="#FF0000" rx="8" ry="8" style="stroke:#181818;stroke-width:0.5;" />
            <path d="M875.5,562.5 L875.5,589.5 M862.5,570.5 L888.5,570.5 M875.5,589.5 L862.5,604.5 M875.5,589.5 L888.5,604.5 " fill="none" style="stroke:#181818;stroke-width:0.5;" /><text fill="#000000" font-family="sans-serif" font-size="14" lengthAdjust="spacing" textLength="91" x="830" y="620.5332">Malicious User</text>
        </g>
        <!--MD5=[aa9d2cfd37f9b85e856ad6a1e4475780]
link UC1 to UC6-->
        <g id="link_UC1_UC6">
            <path d="M280.96,141.08 C331.08,153.35 405.75,171.63 456.88,184.14 " fill="none" id="UC1-to-UC6" style="stroke:#181818;stroke-width:1.0;" />
            <polygon fill="#181818" points="461.75,185.33,453.9595,179.3044,456.8934,184.1409,452.0569,187.0749,461.75,185.33" style="stroke:#181818;stroke-width:1.0;" /><text fill="#000000" font-family="sans-serif" font-size="13" lengthAdjust="spacing" textLength="48" x="357" y="157.4951">includes</text>
        </g>
        <!--MD5=[3ab3c4f0aa88f122bda36575115a204e]
link UC5 to UC6-->
        <g id="link_UC5_UC6">
            <path d="M299.3,198 C340.08,198 391.24,198 433.33,198 " fill="none" id="UC5-to-UC6" style="stroke:#181818;stroke-width:1.0;" />
            <polygon fill="#181818" points="438.42,198,429.42,194,433.42,198,429.42,202,438.42,198" style="stroke:#181818;stroke-width:1.0;" /><text fill="#000000" font-family="sans-serif" font-size="13" lengthAdjust="spacing" textLength="48" x="357" y="194.4951">includes</text>
        </g>
        <!--MD5=[5de79bcd4d0d9c382e7637adece796ee]
link UC4 to UC7-->
        <g id="link_UC4_UC7">
            <path d="M323.53,341 C364.83,341 412,341 449.01,341 " fill="none" id="UC4-to-UC7" style="stroke:#181818;stroke-width:1.0;" />
            <polygon fill="#181818" points="454.4,341,445.4,337,449.4,341,445.4,345,454.4,341" style="stroke:#181818;stroke-width:1.0;" /><text fill="#000000" font-family="sans-serif" font-size="13" lengthAdjust="spacing" textLength="48" x="357" y="337.4951">includes</text>
        </g>
        <!--MD5=[901165f40959f6aff952005c627ca22d]
link UC14 to UC11-->
        <g id="link_UC14_UC11">
            <path d="M270.32,69.63 C322.4,82.56 410.11,104.33 464.74,117.9 " fill="none" id="UC14-to-UC11" style="stroke:#181818;stroke-width:1.0;" />
            <polygon fill="#181818" points="469.92,119.18,462.1421,113.1381,465.0659,117.9808,460.2233,120.9046,469.92,119.18" style="stroke:#181818;stroke-width:1.0;" /><text fill="#000000" font-family="sans-serif" font-size="13" lengthAdjust="spacing" textLength="48" x="357" y="89.4951">includes</text>
        </g>
        <!--MD5=[09d7d8cb12d9fa4251882f1ab45300ac]
link UC11 to UC12-->
        <g id="link_UC11_UC12">
            <path d="M550.83,142.66 C564.42,148.14 579.83,155.11 593,163 C622.83,180.87 625.79,191.67 654,212 C716.86,257.3 793.57,305.11 837.95,332.09 " fill="none" id="UC11-to-UC12" style="stroke:#181818;stroke-width:1.0;" />
            <polygon fill="#181818" points="842.41,334.79,836.802,326.6937,838.139,332.1903,832.6424,333.5273,842.41,334.79" style="stroke:#181818;stroke-width:1.0;" /><text fill="#000000" font-family="sans-serif" font-size="13" lengthAdjust="spacing" textLength="48" x="655" y="208.4951">prevents</text>
        </g>
        <!--MD5=[ba66c1e12e800784ecc5435f6c36de73]
link UC11 to UC13-->
        <g id="link_UC11_UC13">
            <path d="M555.29,141.64 C615.04,159.11 728.86,192.4 803.19,214.14 " fill="none" id="UC11-to-UC13" style="stroke:#181818;stroke-width:1.0;" />
            <polygon fill="#181818" points="808.02,215.56,800.5175,209.1794,803.2239,214.1469,798.2564,216.8532,808.02,215.56" style="stroke:#181818;stroke-width:1.0;" /><text fill="#000000" font-family="sans-serif" font-size="13" lengthAdjust="spacing" textLength="48" x="655" y="167.4951">prevents</text>
        </g>
        <!--MD5=[766679404c4c999e4cf4dcfe94687ae6]
link UC9 to UC10-->
        <g id="link_UC9_UC10">
            <path d="M296,267.72 C336.5,268.14 388.05,268.68 430.8,269.13 " fill="none" id="UC9-to-UC10" style="stroke:#181818;stroke-width:1.0;" />
            <polygon fill="#181818" points="435.97,269.19,427.0163,265.0874,430.9703,269.1329,426.9249,273.0869,435.97,269.19" style="stroke:#181818;stroke-width:1.0;" />
        </g>
        <!--MD5=[8a4b5f0fd3939fac8f36ece58abd065a]
link m to UC12-->
        <g id="link_m_UC12">
            <path d="M875.5,545.75 C875.5,488.7 875.5,431.65 875.5,374.6 " fill="none" id="m-UC12" style="stroke:#181818;stroke-width:1.0;" />
        </g>
        <!--MD5=[3e14623d7d2c0b2e0504b0e727a19ef9]
link m to UC13-->
        <g id="link_m_UC13">
            <path d="M829.9,575.31 C796.79,565.58 754.43,546.92 734.5,512.5 C694.63,443.66 697.73,404.05 734.5,333.5 C753,298.02 790.76,272.69 822.56,256.61 " fill="none" id="m-UC13" style="stroke:#181818;stroke-width:1.0;" />
        </g>
        <!--MD5=[0c1f5b2aba23facd9e2aeb333553c598]
link s to UC9-->
        <g id="link_s_UC9">
            <path d="M49.6,186.99 C62.15,200.78 81.98,220.28 103,232 C123.77,243.57 148.7,251.6 170.63,257.02 " fill="none" id="s-UC9" style="stroke:#181818;stroke-width:1.0;" />
        </g>
        <!--MD5=[1d5e614dd8463a8829c087e6e23322a4]
link a to UC9-->
        <g id="link_a_UC9">
            <path d="M63.8,336.66 C74.71,323.68 88.17,310.22 103,301 C122.49,288.88 146.37,281 167.84,275.91 " fill="none" id="a-UC9" style="stroke:#181818;stroke-width:1.0;" />
        </g>
        <!--MD5=[ced53a2e1ee50106e9ee477c87b6a0fe]
link a to UC4-->
        <g id="link_a_UC4">
            <path d="M64.37,370.76 C87.19,366.55 120.33,360.42 150.63,354.83 " fill="none" id="a-UC4" style="stroke:#181818;stroke-width:1.0;" />
        </g>
        <!--MD5=[9a225dd836e694e75e64a328ea686656]
link s to UC1-->
        <g id="link_s_UC1">
            <path d="M49.73,166.6 C61.43,162.94 78.71,157.74 94,154 C116.6,148.46 141.61,143.29 163.7,139.03 " fill="none" id="s-UC1" style="stroke:#181818;stroke-width:1.0;" />
        </g>
        <!--MD5=[ab1c5db9e7ea4db265d3484f4f97f7b8]
link s to UC2-->
        <g id="link_s_UC2">
            <path d="M47.6,210.3 C65.1,269.09 96.86,373.78 103,380 C115.29,392.45 131.46,401.12 148.01,407.15 " fill="none" id="s-UC2" style="stroke:#181818;stroke-width:1.0;" />
        </g>
        <!--MD5=[46a88b67fe0fb697a9d600a230bce57d]
link a to UC2-->
        <g id="link_a_UC2">
            <path d="M64.37,382.74 C88.84,388.55 125.18,397.18 157.16,404.77 " fill="none" id="a-UC2" style="stroke:#181818;stroke-width:1.0;" />
        </g>
        <!--MD5=[edf70f88007b3901b64f31ed49bfd97b]
link a to UC3-->
        <g id="link_a_UC3">
            <path d="M59.16,415.3 C70.51,431.54 85.52,449.28 103,461 C121,473.07 143.17,481.03 163.68,486.26 " fill="none" id="a-UC3" style="stroke:#181818;stroke-width:1.0;" />
        </g>
        <!--MD5=[d8b25096fcbeb02087ad5859d3b192a9]
link s to UC14-->
        <g id="link_s_UC14">
            <path d="M49.71,148.29 C61.64,130.43 80.52,106.26 103,92 C123.92,78.73 150.12,70.75 172.9,65.97 " fill="none" id="s-UC14" style="stroke:#181818;stroke-width:1.0;" />
        </g>
        <!--MD5=[6db5176ff125ae436d96dc8994641ca6]
link a to UC5-->
        <g id="link_a_UC5">
            <path d="M44.75,336.79 C53.95,304.47 71.59,259.75 103,233 C119.33,219.09 140.88,210.69 161.34,205.63 " fill="none" id="a-UC5" style="stroke:#181818;stroke-width:1.0;" />
        </g>
        <!--MD5=[a4bd54dd3866fe9ff11ffd1ad53a712f]
link s to UC5-->
        <g id="link_s_UC5">
            <path d="M49.63,172.94 C73.31,176.32 123.4,183.45 164.09,189.25 " fill="none" id="s-UC5" style="stroke:#181818;stroke-width:1.0;" />
        </g>
        <!--MD5=[f56e13cbbe666032724f9d00648d8760]
link UC10 to b-->
        <g id="link_UC10_b">
            <path d="M558.45,285.11 C570.66,290.89 583.26,298.45 593,308 C712.22,424.9 646.77,524.1 765,642 C788.44,665.37 823.63,680.97 847.76,689.64 " fill="none" id="UC10-b" style="stroke:#181818;stroke-width:1.0;" />
        </g>
        <!--MD5=[08e8bc04e3972ea7529190e08a446c65]
link UC2 to b-->
        <g id="link_UC2_b">
            <path d="M276.19,440.52 C292.09,446.97 309.83,454.22 326,461 C527.4,545.39 768.44,651.24 847.76,686.2 " fill="none" id="UC2-b" style="stroke:#181818;stroke-width:1.0;" />
        </g>
        <!--MD5=[eeeca849239607aac686faf30d1ab09c]
@startuml
left to right direction
actor Staff as s
actor Approver as a
actor Backend as b
actor "Malicious User" as m #red

rectangle "Discount App" {
  usecase "Request Discount" as UC1
  usecase "View Requests/Approvals" as UC2
  usecase "Update Request" as UC3
  usecase "Approve/Reject Request" as UC4
  usecase "Route Request" as UC5
  usecase "Notify Approvers" as UC6
  usecase "Notify Staff" as UC7
  usecase "Register User" as UC9
  usecase "Update Database" as UC10
  usecase "Verify User" as UC11
  usecase "Unauthorized Request" as UC12 #red
  usecase "Unauthorized Approve/Reject" as UC13 #red
  usecase "Login User" as UC14
}

UC1 - -> UC6: includes
UC5 - -> UC6: includes
UC4 - -> UC7: includes
UC14 - -> UC11: includes
UC11 - - -> UC12: prevents
UC11 - - -> UC13: prevents

UC9 - -> UC10

m - UC12
m - UC13
s - UC9
a - UC9
a - - UC4
s - - UC1
s - UC2
a - UC2
a - - UC3
s - - UC14
a - - UC5
s - - UC5

UC10 - - - b
UC2 - - - b


@enduml

PlantUML version 1.2022.5(Sat Apr 30 18:55:52 SGT 2022)
(MIT source distribution)
Java Runtime: Java(TM) SE Runtime Environment
JVM: Java HotSpot(TM) 64-Bit Server VM
Default Encoding: Cp1252
Language: en
Country: US
-->
    </g>
</svg>